<?xml version="1.0" encoding="utf-8"?>
<!-- Generator: Adobe Illustrator 16.0.0, SVG Export Plug-In . SVG Version: 6.00 Build 0)  -->
<!DOCTYPE svg PUBLIC "-//W3C//DTD SVG 1.1//EN" "http://www.w3.org/Graphics/SVG/1.1/DTD/svg11.dtd">
<svg version="1.1" id="레이어_1" xmlns="http://www.w3.org/2000/svg" xmlns:xlink="http://www.w3.org/1999/xlink" x="0px"
	 y="0px" width="130px" height="120px" viewBox="0 0 130 120" enable-background="new 0 0 130 120" xml:space="preserve">
<g>
	<path d="M56.616,60.02c-0.114-0.084-0.219-0.189-0.315-0.315c-0.096-0.126-0.18-0.264-0.252-0.414
		c-0.072-0.15-0.144-0.285-0.216-0.405l-0.396-0.63c-0.024,0.024-0.048,0.039-0.072,0.045c-0.024,0.006-0.048,0.021-0.072,0.045
		c-0.444,0.264-0.916,0.456-1.413,0.576c-0.498,0.12-0.999,0.18-1.503,0.18c-0.9,0-1.659-0.204-2.277-0.612
		c-0.618-0.408-1.116-0.936-1.494-1.584c-0.378-0.648-0.651-1.377-0.819-2.187c-0.168-0.81-0.252-1.611-0.252-2.403
		c0-0.9,0.111-1.824,0.333-2.772c0.222-0.948,0.57-1.806,1.044-2.574s1.077-1.398,1.809-1.89s1.602-0.738,2.61-0.738
		c0.54,0,1.053,0.087,1.539,0.261c0.486,0.174,0.93,0.42,1.332,0.738c0.402,0.318,0.75,0.696,1.044,1.134s0.519,0.927,0.675,1.467
		c0.132,0.432,0.213,0.87,0.243,1.314c0.03,0.444,0.045,0.894,0.045,1.35c0,0.528-0.018,1.077-0.054,1.647
		c-0.036,0.57-0.108,1.134-0.216,1.692c-0.108,0.558-0.261,1.101-0.459,1.629c-0.198,0.528-0.453,1.008-0.765,1.44l0.756,1.206
		c0.072,0.12,0.141,0.23,0.207,0.333c0.066,0.102,0.129,0.219,0.189,0.351c0.048,0.096,0.072,0.21,0.072,0.342
		c0,0.24-0.09,0.45-0.27,0.63c-0.18,0.18-0.39,0.27-0.63,0.27C56.871,60.146,56.729,60.104,56.616,60.02z M49.353,53.918
		c0.096,0.624,0.27,1.197,0.522,1.719c0.252,0.522,0.594,0.957,1.026,1.305c0.432,0.348,0.978,0.522,1.638,0.522
		c0.36,0,0.72-0.039,1.08-0.117c0.36-0.078,0.702-0.219,1.026-0.423l-0.162-0.252l-0.882-1.422
		c-0.072-0.108-0.141-0.216-0.207-0.324c-0.066-0.108-0.129-0.222-0.189-0.342c-0.048-0.108-0.072-0.222-0.072-0.342
		c0-0.24,0.09-0.45,0.27-0.63c0.18-0.18,0.39-0.27,0.63-0.27c0.156,0,0.294,0.042,0.414,0.126c0.12,0.084,0.228,0.189,0.324,0.315
		c0.096,0.126,0.18,0.264,0.252,0.414c0.072,0.15,0.144,0.286,0.216,0.405l0.558,0.918c0.168-0.36,0.3-0.744,0.396-1.152
		c0.096-0.408,0.171-0.825,0.225-1.251c0.054-0.426,0.09-0.84,0.108-1.242c0.018-0.402,0.027-0.777,0.027-1.125
		c0-0.336-0.009-0.669-0.027-0.999s-0.069-0.663-0.153-0.999c-0.096-0.396-0.24-0.762-0.432-1.098
		c-0.192-0.335-0.429-0.627-0.711-0.873c-0.282-0.246-0.597-0.441-0.945-0.585s-0.72-0.216-1.116-0.216
		c-0.744,0-1.368,0.204-1.872,0.612c-0.504,0.408-0.909,0.921-1.215,1.539c-0.306,0.618-0.528,1.287-0.666,2.007
		c-0.138,0.72-0.207,1.392-0.207,2.016C49.209,52.706,49.256,53.294,49.353,53.918z"/>
	<path d="M65.381,58.31c-0.63,0.36-1.323,0.54-2.079,0.54c-0.432,0-0.846-0.066-1.242-0.198s-0.741-0.324-1.035-0.576
		s-0.531-0.558-0.711-0.918c-0.18-0.36-0.27-0.768-0.27-1.224c0-0.348,0.045-0.705,0.135-1.071c0.09-0.366,0.213-0.705,0.369-1.017
		c0.168-0.348,0.447-0.765,0.837-1.251c0.39-0.486,0.795-0.975,1.215-1.467c-0.12-0.204-0.234-0.405-0.342-0.603
		c-0.108-0.198-0.21-0.405-0.306-0.621c-0.18-0.408-0.331-0.828-0.45-1.26c-0.12-0.432-0.18-0.876-0.18-1.332
		c0-0.372,0.087-0.732,0.261-1.08c0.174-0.348,0.405-0.654,0.693-0.918c0.288-0.264,0.612-0.474,0.972-0.63
		c0.36-0.156,0.726-0.234,1.098-0.234c0.396,0,0.768,0.066,1.116,0.198c0.348,0.132,0.654,0.315,0.918,0.549
		c0.264,0.234,0.471,0.52,0.621,0.855c0.149,0.336,0.225,0.708,0.225,1.116c0,0.24-0.033,0.474-0.1,0.702
		c-0.065,0.228-0.158,0.444-0.278,0.648c-0.169,0.288-0.366,0.558-0.595,0.81c-0.228,0.252-0.456,0.504-0.684,0.756
		c-0.12,0.132-0.258,0.285-0.414,0.459c-0.156,0.174-0.324,0.363-0.504,0.567c0.228,0.336,0.453,0.654,0.675,0.954
		c0.222,0.3,0.429,0.582,0.621,0.846c0.168,0.24,0.336,0.477,0.505,0.711c0.168,0.234,0.342,0.471,0.521,0.711
		c0.035-0.06,0.068-0.123,0.099-0.189s0.058-0.129,0.081-0.189c0.036-0.084,0.075-0.186,0.117-0.306
		c0.042-0.12,0.087-0.243,0.135-0.369s0.1-0.243,0.153-0.351c0.054-0.108,0.104-0.192,0.153-0.252
		c0.096-0.108,0.207-0.198,0.332-0.27c0.127-0.072,0.262-0.108,0.406-0.108c0.203,0,0.38,0.066,0.53,0.198
		c0.149,0.132,0.226,0.306,0.226,0.522c0,0.12-0.045,0.3-0.136,0.54c-0.09,0.24-0.194,0.489-0.315,0.747
		c-0.119,0.258-0.242,0.504-0.368,0.738s-0.226,0.405-0.298,0.513c0.168,0.156,0.343,0.306,0.522,0.45
		c0.181,0.144,0.36,0.282,0.54,0.414c0.145,0.108,0.3,0.213,0.469,0.315c0.168,0.102,0.317,0.219,0.449,0.351
		c0.145,0.144,0.217,0.312,0.217,0.504c0,0.24-0.091,0.444-0.271,0.612c-0.181,0.168-0.39,0.252-0.63,0.252
		c-0.205,0-0.399-0.066-0.586-0.198c-0.186-0.132-0.356-0.258-0.512-0.378c-0.205-0.156-0.408-0.312-0.613-0.468
		c-0.203-0.156-0.401-0.318-0.594-0.486C66.578,57.488,66.012,57.95,65.381,58.31z M65.742,55.547
		c-0.079-0.09-0.153-0.183-0.225-0.279c-0.264-0.336-0.516-0.675-0.756-1.017c-0.24-0.342-0.48-0.687-0.72-1.035
		c-0.096-0.132-0.189-0.261-0.279-0.387c-0.09-0.126-0.183-0.255-0.279-0.387c-0.312,0.372-0.597,0.732-0.855,1.08
		c-0.258,0.348-0.453,0.642-0.585,0.882c-0.096,0.192-0.177,0.417-0.243,0.675c-0.066,0.258-0.099,0.489-0.099,0.693
		c0,0.252,0.047,0.471,0.144,0.657s0.225,0.342,0.387,0.468s0.351,0.219,0.567,0.279c0.216,0.061,0.438,0.09,0.666,0.09
		c0.504,0,0.963-0.138,1.377-0.414c0.414-0.276,0.795-0.618,1.143-1.026C65.9,55.73,65.819,55.637,65.742,55.547z M63.222,48.455
		c0.162,0.438,0.369,0.867,0.621,1.287c0.06-0.06,0.126-0.138,0.198-0.234c0.216-0.24,0.435-0.474,0.657-0.702
		s0.423-0.48,0.603-0.756c0.072-0.108,0.135-0.225,0.189-0.351c0.054-0.126,0.081-0.255,0.081-0.387
		c0-0.384-0.132-0.693-0.396-0.927c-0.264-0.234-0.588-0.351-0.972-0.351c-0.144,0-0.288,0.033-0.432,0.099
		c-0.144,0.066-0.273,0.15-0.387,0.252c-0.114,0.103-0.21,0.223-0.288,0.36c-0.079,0.138-0.117,0.279-0.117,0.423
		C62.979,47.588,63.06,48.017,63.222,48.455z"/>
	<path d="M73.293,55.052c-0.108,0.432-0.223,0.871-0.342,1.314c-0.025,0.096-0.066,0.255-0.127,0.477
		c-0.061,0.223-0.119,0.45-0.18,0.684c-0.061,0.234-0.12,0.453-0.18,0.657c-0.061,0.204-0.108,0.33-0.145,0.378
		c-0.096,0.144-0.21,0.261-0.342,0.351c-0.133,0.09-0.282,0.135-0.45,0.135c-0.204,0-0.381-0.066-0.53-0.198
		c-0.15-0.132-0.226-0.313-0.226-0.54c0-0.072,0.019-0.186,0.054-0.342c0.037-0.156,0.078-0.318,0.127-0.486
		c0.047-0.168,0.096-0.333,0.144-0.495c0.048-0.162,0.083-0.291,0.108-0.387c0.359-1.296,0.701-2.586,1.025-3.87
		c0.324-1.284,0.648-2.58,0.973-3.888c0.119-0.492,0.233-0.981,0.342-1.467c0.107-0.486,0.233-0.975,0.377-1.467
		c0.097-0.336,0.211-0.624,0.343-0.864c0.132-0.228,0.3-0.417,0.504-0.567s0.438-0.225,0.702-0.225c0.312,0,0.576,0.099,0.792,0.297
		c0.216,0.198,0.401,0.417,0.558,0.657c0.18,0.276,0.34,0.567,0.477,0.873c0.139,0.306,0.273,0.615,0.406,0.927
		c0.467,1.188,0.902,2.379,1.305,3.573s0.813,2.391,1.232,3.591c0.168,0.48,0.336,0.957,0.504,1.431s0.342,0.951,0.522,1.431
		c0.096,0.24,0.192,0.471,0.288,0.693c0.096,0.222,0.18,0.453,0.252,0.693c0.023,0.096,0.036,0.174,0.036,0.234
		c0,0.24-0.091,0.45-0.271,0.63c-0.18,0.18-0.39,0.27-0.63,0.27c-0.252,0-0.462-0.102-0.63-0.306
		c-0.048-0.06-0.123-0.222-0.225-0.486c-0.103-0.264-0.211-0.549-0.324-0.855c-0.114-0.306-0.223-0.603-0.324-0.891
		c-0.102-0.288-0.171-0.486-0.207-0.594c-0.168-0.492-0.339-0.975-0.513-1.449c-0.175-0.474-0.345-0.957-0.513-1.449
		c-0.373,0.036-0.744,0.054-1.117,0.054c-0.371,0-0.737,0.012-1.098,0.036c-0.396,0.024-0.789,0.048-1.179,0.072
		s-0.782,0.042-1.179,0.054C73.515,54.182,73.4,54.62,73.293,55.052z M75.129,47.753c-0.108,0.474-0.223,0.951-0.342,1.431
		c-0.121,0.48-0.24,0.957-0.36,1.431s-0.24,0.951-0.36,1.431c0.288-0.012,0.579-0.021,0.873-0.027
		c0.294-0.006,0.579-0.015,0.855-0.027c0.312-0.012,0.621-0.027,0.927-0.045c0.306-0.018,0.614-0.039,0.927-0.063
		c-0.107-0.3-0.213-0.597-0.314-0.891c-0.103-0.294-0.207-0.591-0.315-0.891c-0.228-0.648-0.453-1.296-0.675-1.944
		c-0.223-0.648-0.508-1.26-0.855-1.836C75.356,46.802,75.236,47.279,75.129,47.753z"/>
</g>
<line fill="#231815" stroke="#CECCE5" stroke-width="3" stroke-miterlimit="10" x1="38.292" y1="72.541" x2="91.167" y2="72.541"/>
</svg>
