<?xml version="1.0" encoding="utf-8"?>
<!-- Generator: Adobe Illustrator 16.0.0, SVG Export Plug-In . SVG Version: 6.00 Build 0)  -->
<!DOCTYPE svg PUBLIC "-//W3C//DTD SVG 1.1//EN" "http://www.w3.org/Graphics/SVG/1.1/DTD/svg11.dtd">
<svg version="1.1" id="레이어_1" xmlns="http://www.w3.org/2000/svg" xmlns:xlink="http://www.w3.org/1999/xlink" x="0px"
	 y="0px" width="800px" height="100px" viewBox="0 0 800 100" enable-background="new 0 0 800 100" xml:space="preserve">
<g>
	<path fill="#A5A0F0" d="M799.916,95.125c0,2.75-2.25,5-5,5h-790c-2.75,0-5-2.25-5-5v-90c0-2.75,2.25-5,5-5h790c2.75,0,5,2.25,5,5
		V95.125z"/>
</g>
<g>
	<path fill="#FFFFFF" d="M312.153,62.103c-0.411-0.187-0.691-0.476-0.84-0.868c-0.149-0.392-0.093-0.849,0.168-1.372
		c1.867-3.696,3.351-7.495,4.453-11.397c1.101-3.901,1.727-7.646,1.876-11.229h-13.218c-0.523,0-0.934-0.149-1.232-0.448
		c-0.299-0.299-0.448-0.709-0.448-1.232v-5.88c0-0.522,0.148-0.933,0.448-1.232c0.299-0.298,0.709-0.448,1.232-0.448h19.827
		c0.971,0,1.773,0.271,2.408,0.812c0.635,0.542,0.952,1.391,0.952,2.548v1.12c0,2.838-0.206,5.647-0.616,8.429
		c-0.412,2.782-0.99,5.48-1.736,8.094c-0.748,2.613-1.634,5.106-2.661,7.477c-1.027,2.372-2.138,4.547-3.333,6.525
		c-0.672,1.083-1.531,1.382-2.576,0.896L312.153,62.103z M335.396,69.159c-1.12,0-1.68-0.56-1.68-1.68V27.826
		c0-1.12,0.541-1.68,1.624-1.68h6.833c1.12,0,1.661,0.56,1.625,1.68l-0.392,12.209l5.208-0.056c0.597,0,1.073,0.178,1.428,0.532
		c0.354,0.355,0.532,0.831,0.532,1.428v4.593c0,0.598-0.178,1.074-0.532,1.429c-0.355,0.355-0.832,0.532-1.428,0.532l-5.489,0.111
		l-0.56,18.875c0,1.12-0.56,1.68-1.68,1.68H335.396z"/>
	<path fill="#FFFFFF" d="M356.791,47.261c-1.232-1.194-2.194-2.595-2.884-4.201c-0.691-1.604-1.036-3.341-1.036-5.208
		c0-1.829,0.345-3.565,1.036-5.209c0.69-1.643,1.652-3.081,2.884-4.313c1.232-1.232,2.725-2.212,4.481-2.94
		c1.754-0.728,3.696-1.092,5.825-1.092s4.061,0.364,5.797,1.092s3.22,1.708,4.453,2.94c1.232,1.232,2.184,2.67,2.856,4.313
		c0.672,1.644,1.008,3.38,1.008,5.209c0,1.867-0.336,3.604-1.008,5.208c-0.672,1.606-1.625,2.997-2.856,4.173
		c-1.232,1.177-2.716,2.11-4.453,2.801c-1.736,0.691-3.668,1.036-5.797,1.036s-4.07-0.345-5.825-1.036
		C359.516,49.343,358.023,48.418,356.791,47.261z M361.943,37.852c0,1.568,0.56,2.875,1.68,3.92c1.12,1.046,2.557,1.568,4.313,1.568
		c1.755,0,3.193-0.522,4.313-1.568c1.12-1.045,1.68-2.352,1.68-3.92s-0.56-2.885-1.68-3.949c-1.12-1.063-2.558-1.596-4.313-1.596
		c-1.755,0-3.192,0.532-4.313,1.596C362.503,34.967,361.943,36.283,361.943,37.852z M365.024,75.097
		c-0.859,0-1.532-0.252-2.016-0.757c-0.486-0.504-0.748-1.186-0.784-2.044l-0.28-16.466c0-1.493,0.728-2.24,2.185-2.24h5.152
		c1.419,0,2.109,0.728,2.072,2.184v1.625l14.506-0.225v-1.96c0-0.747,0.187-1.316,0.561-1.708c0.373-0.393,0.933-0.569,1.68-0.532
		h4.929c1.531,0,2.259,0.747,2.185,2.24l-0.448,16.858c-0.037,0.858-0.299,1.54-0.784,2.044s-1.157,0.756-2.016,0.756
		L365.024,75.097z M371.465,67.647l14.45-0.112v-3.137l-14.45,0.112V67.647z M388.267,50.957c-1.12,0-1.68-0.56-1.68-1.681
		l-0.336-23.131c0-1.12,0.541-1.68,1.624-1.68h6.833c1.12,0,1.661,0.56,1.624,1.68l-0.56,23.131
		c-0.075,1.121-0.636,1.681-1.681,1.681H388.267z"/>
	<path fill="#FFFFFF" d="M403.276,39.42c-0.523,0-0.934-0.149-1.232-0.448s-0.447-0.709-0.447-1.232v-4.816
		c0-0.522,0.148-0.934,0.447-1.232c0.299-0.298,0.709-0.448,1.232-0.448h8.289l0.729-5.769c0.187-1.232,0.914-1.736,2.184-1.512
		l6.218,1.176c1.269,0.224,1.772,0.971,1.512,2.24l-0.784,3.809h8.233c0.933,0,1.4,0.467,1.4,1.4v4.761
		c0,0.934-0.468,1.399-1.4,1.399L403.276,39.42z M407.197,61.543c-1.12-1.045-1.988-2.297-2.604-3.753s-0.924-3.062-0.924-4.816
		s0.308-3.369,0.924-4.845c0.616-1.475,1.493-2.744,2.632-3.809s2.502-1.895,4.089-2.492c1.587-0.597,3.333-0.896,5.237-0.896
		c1.903,0,3.64,0.3,5.208,0.896c1.568,0.598,2.913,1.428,4.033,2.492s1.988,2.334,2.604,3.809c0.616,1.476,0.925,3.09,0.925,4.845
		s-0.318,3.36-0.952,4.816c-0.598,1.456-1.456,2.708-2.576,3.753s-2.465,1.848-4.033,2.408c-1.568,0.56-3.305,0.84-5.208,0.84
		c-1.904,0-3.65-0.28-5.237-0.84C409.727,63.391,408.354,62.588,407.197,61.543z M412.182,52.974c0,1.419,0.457,2.539,1.372,3.36
		s2.138,1.232,3.669,1.232c1.456,0,2.632-0.411,3.528-1.232c0.933-0.821,1.4-1.941,1.4-3.36s-0.458-2.539-1.372-3.36
		c-0.916-0.821-2.101-1.232-3.557-1.232c-1.531,0-2.754,0.411-3.669,1.232S412.182,51.555,412.182,52.974z M435.649,69.159
		c-1.121,0-1.681-0.56-1.681-1.68V27.826c0-1.12,0.541-1.68,1.624-1.68h6.833c1.12,0,1.661,0.56,1.624,1.68l-0.448,13.33
		l4.705-0.056c0.597,0,1.073,0.178,1.429,0.532c0.354,0.355,0.531,0.831,0.531,1.428v4.593c0,0.598-0.178,1.074-0.531,1.429
		c-0.355,0.355-0.832,0.532-1.429,0.532l-4.929,0.111l-0.56,17.755c0,1.12-0.561,1.68-1.681,1.68H435.649z"/>
	<path fill="#FFFFFF" d="M464.492,62.103c-0.411-0.187-0.691-0.476-0.84-0.868c-0.149-0.392-0.094-0.849,0.168-1.372
		c1.866-3.696,3.351-7.589,4.452-11.678s1.727-7.925,1.877-11.51h-15.179c-0.934,0-1.4-0.466-1.4-1.399v-6.441
		c0-0.933,0.467-1.4,1.4-1.4h21.787c0.971,0,1.773,0.271,2.408,0.813c0.635,0.542,0.952,1.391,0.952,2.548v1.12
		c0,2.839-0.243,5.677-0.728,8.514c-0.486,2.838-1.13,5.601-1.933,8.289c-0.804,2.688-1.746,5.246-2.828,7.673
		c-1.084,2.428-2.223,4.631-3.417,6.609c-0.672,1.083-1.531,1.382-2.576,0.896L464.492,62.103z M487.735,69.159
		c-1.12,0-1.68-0.56-1.68-1.68V27.826c0-1.12,0.54-1.68,1.624-1.68h6.833c1.12,0,1.661,0.56,1.624,1.68l-1.232,39.654
		c0,1.12-0.56,1.68-1.68,1.68H487.735z"/>
</g>
</svg>
