<?xml version="1.0" encoding="utf-8"?>
<!-- Generator: Adobe Illustrator 16.0.0, SVG Export Plug-In . SVG Version: 6.00 Build 0)  -->
<!DOCTYPE svg PUBLIC "-//W3C//DTD SVG 1.1//EN" "http://www.w3.org/Graphics/SVG/1.1/DTD/svg11.dtd">
<svg version="1.1" id="레이어_1" xmlns="http://www.w3.org/2000/svg" xmlns:xlink="http://www.w3.org/1999/xlink" x="0px"
	 y="0px" width="155px" height="40px" viewBox="0 0 155 40" enable-background="new 0 0 155 40" xml:space="preserve">
<g>
	<path fill="#A5A0F0" d="M154.999,34.851c0,2.75-2.25,5-5,5h-145c-2.75,0-5-2.25-5-5v-30c0-2.75,2.25-5,5-5h145c2.75,0,5,2.25,5,5
		V34.851z"/>
</g>
<g display="none">
	<path display="inline" fill="#FFFFFF" d="M57.735,25.021c-0.155,0.011-0.276-0.031-0.365-0.125
		c-0.088-0.094-0.132-0.219-0.132-0.373v-1.361c0-0.154,0.044-0.276,0.132-0.364c0.089-0.089,0.21-0.133,0.365-0.133h4.249
		l-0.017-1.594l-2.473,0.083c-0.774,0-1.162-0.382-1.162-1.145l-0.017-3.319c0-0.387,0.105-0.678,0.315-0.871
		c0.21-0.193,0.487-0.291,0.83-0.291l6.24-0.017v-0.863h-6.92c-0.177,0-0.318-0.053-0.423-0.158
		c-0.105-0.105-0.158-0.246-0.158-0.423v-1.294c0-0.177,0.052-0.318,0.158-0.423c0.105-0.105,0.246-0.158,0.423-0.158l8.679,0.033
		c0.343,0,0.623,0.097,0.838,0.29c0.215,0.194,0.318,0.484,0.307,0.872l-0.083,3.203c-0.011,0.365-0.11,0.647-0.298,0.846
		c-0.188,0.199-0.476,0.305-0.863,0.315l-6.223,0.05v0.929l6.854,0.017c0.177-0.022,0.307-0.011,0.39,0.033
		c0.083,0.044,0.135,0.145,0.157,0.299v1.212c0.056,0.331-0.061,0.525-0.348,0.58l-3.27,0.116l-0.017,1.66l4.215-0.017
		c0.155,0,0.276,0.044,0.365,0.133c0.088,0.088,0.133,0.21,0.133,0.364v1.179c0,0.154-0.044,0.273-0.133,0.356
		c-0.089,0.083-0.21,0.13-0.365,0.142L57.735,25.021z"/>
	<path display="inline" fill="#FFFFFF" d="M71.111,24.855c-0.155,0.011-0.276-0.031-0.365-0.125
		c-0.088-0.094-0.132-0.219-0.132-0.373v-1.444c0-0.154,0.044-0.276,0.132-0.364c0.089-0.089,0.21-0.133,0.365-0.133l11.384-0.033
		c0.155,0,0.276,0.044,0.365,0.133c0.088,0.088,0.133,0.21,0.133,0.365v1.261c0,0.155-0.045,0.273-0.133,0.356
		c-0.089,0.083-0.21,0.13-0.365,0.142L71.111,24.855z M71.99,15.396c-0.276,0-0.415-0.138-0.415-0.415v-1.825
		c0-0.276,0.138-0.415,0.415-0.415h9.145c0.287,0,0.524,0.081,0.713,0.241c0.188,0.161,0.282,0.412,0.282,0.755v0.332
		c0,1.106-0.053,2.205-0.157,3.294c-0.105,1.09-0.274,2.205-0.507,3.344c-0.066,0.321-0.265,0.481-0.597,0.481l-1.561-0.05
		c-0.144,0-0.263-0.05-0.356-0.149s-0.13-0.237-0.108-0.415c0.045-0.453,0.086-0.918,0.125-1.394c0.038-0.476,0.071-0.94,0.1-1.394
		c0.027-0.454,0.044-0.885,0.05-1.294c0.005-0.409,0.003-0.774-0.009-1.095H71.99z"/>
	<path display="inline" fill="#FFFFFF" d="M86.628,20.093c-0.521-0.21-0.963-0.501-1.328-0.872c-0.365-0.37-0.646-0.81-0.846-1.319
		s-0.299-1.062-0.299-1.66c0-0.597,0.1-1.156,0.299-1.676s0.48-0.971,0.846-1.353s0.808-0.683,1.328-0.904
		c0.52-0.221,1.101-0.332,1.742-0.332s1.22,0.111,1.734,0.332s0.954,0.522,1.319,0.904s0.645,0.833,0.838,1.353
		s0.29,1.079,0.29,1.676c0,0.598-0.097,1.151-0.29,1.66s-0.473,0.952-0.838,1.328c-0.365,0.365-0.805,0.653-1.319,0.863
		s-1.093,0.315-1.734,0.315S87.147,20.303,86.628,20.093z M87.308,17.553c0.321,0.343,0.758,0.515,1.312,0.515
		c0.542,0,0.974-0.171,1.294-0.515c0.321-0.343,0.481-0.78,0.481-1.311c0-0.531-0.16-0.971-0.481-1.319
		c-0.32-0.348-0.752-0.522-1.294-0.522c-0.575,0-1.016,0.174-1.319,0.522c-0.305,0.349-0.456,0.789-0.456,1.319
		C86.844,16.773,86.998,17.21,87.308,17.553z M88.536,26.664c-0.376,0.011-0.661-0.083-0.854-0.282
		c-0.194-0.199-0.296-0.487-0.308-0.863l-0.1-3.617c-0.021-0.332,0.139-0.498,0.481-0.498h1.826c0.32,0,0.48,0.166,0.48,0.498
		l-0.033,2.373l6.34,0.066c0.32,0,0.481,0.144,0.481,0.432v1.261c0,0.343-0.149,0.515-0.448,0.515L88.536,26.664z M94.643,22.034
		c-0.331,0-0.497-0.166-0.497-0.498l-0.1-9.177c0-0.332,0.16-0.498,0.481-0.498h2.024c0.332,0,0.492,0.166,0.481,0.498l-0.166,9.177
		c-0.022,0.332-0.188,0.498-0.498,0.498H94.643z"/>
</g>
<g>
	<path fill="#FFFFFF" d="M50.258,22.984c0-0.147,0.042-0.263,0.126-0.347s0.199-0.126,0.346-0.126c0.41,0,0.819-0.002,1.229-0.008
		c0.409-0.005,0.819-0.013,1.228-0.023l-0.016-1.527c-0.074-0.021-0.147-0.047-0.22-0.079c-0.452-0.157-0.843-0.383-1.173-0.677
		s-0.59-0.654-0.779-1.079c-0.189-0.425-0.284-0.911-0.284-1.457c0-0.641,0.173-1.223,0.52-1.748l-0.819,0.016
		c-0.147,0-0.262-0.042-0.346-0.126s-0.126-0.199-0.126-0.346v-1.26c0-0.147,0.042-0.262,0.126-0.347
		c0.084-0.084,0.199-0.126,0.346-0.126h2.567l0.079-1.386c0.021-0.356,0.221-0.509,0.599-0.457l1.764,0.236
		c0.346,0.042,0.499,0.242,0.457,0.598l-0.142,0.992h2.646c0.262,0,0.394,0.131,0.394,0.394v1.244c0,0.263-0.131,0.394-0.394,0.394
		l-0.929,0.032c0.199,0.262,0.354,0.551,0.464,0.866c0.11,0.315,0.166,0.656,0.166,1.024c0,0.546-0.095,1.031-0.284,1.457
		c-0.189,0.425-0.446,0.785-0.771,1.079s-0.714,0.52-1.165,0.677c-0.042,0.021-0.084,0.037-0.126,0.047l-0.016,1.417
		c0.462-0.031,0.914-0.073,1.354-0.126s0.882-0.115,1.323-0.189c0.262-0.042,0.425,0.084,0.488,0.378l0.189,1.04
		c0.031,0.146,0.005,0.257-0.079,0.33s-0.189,0.126-0.315,0.157c-0.535,0.126-1.123,0.236-1.764,0.331
		c-0.64,0.095-1.302,0.171-1.984,0.229c-0.683,0.058-1.38,0.103-2.094,0.134s-1.417,0.047-2.11,0.047
		c-0.147,0-0.262-0.042-0.346-0.126s-0.126-0.199-0.126-0.347V22.984z M53.203,18.339c0.083,0.2,0.197,0.368,0.338,0.504
		c0.142,0.137,0.304,0.239,0.488,0.307c0.184,0.068,0.37,0.103,0.559,0.103c0.178,0,0.359-0.034,0.543-0.103
		c0.184-0.068,0.344-0.17,0.48-0.307c0.147-0.136,0.265-0.304,0.354-0.504c0.089-0.199,0.134-0.425,0.134-0.677
		s-0.044-0.478-0.134-0.677s-0.205-0.365-0.346-0.496s-0.305-0.233-0.488-0.307c-0.184-0.073-0.365-0.11-0.543-0.11
		c-0.189,0-0.375,0.037-0.559,0.11c-0.184,0.074-0.347,0.176-0.488,0.307s-0.255,0.297-0.338,0.496
		c-0.084,0.199-0.126,0.425-0.126,0.677S53.118,18.14,53.203,18.339z M60.147,24.921c-0.315,0-0.473-0.157-0.473-0.473V13.3
		c0-0.315,0.152-0.472,0.457-0.472h1.921c0.315,0,0.467,0.157,0.457,0.472l-0.347,11.148c0,0.315-0.157,0.473-0.472,0.473H60.147z"
		/>
	<path fill="#FFFFFF" d="M64.43,20.764c-0.147,0-0.263-0.042-0.347-0.126s-0.126-0.2-0.126-0.347v-1.071
		c0-0.147,0.042-0.262,0.126-0.346s0.2-0.126,0.347-0.126c1.386,0,2.713-0.029,3.984-0.087c1.27-0.058,2.504-0.197,3.701-0.417
		c0.272-0.042,0.436,0.089,0.488,0.394l0.158,0.913c0.021,0.147-0.008,0.252-0.087,0.315c-0.079,0.063-0.186,0.116-0.323,0.158
		c-0.567,0.137-1.144,0.25-1.732,0.338c-0.588,0.089-1.187,0.16-1.795,0.213v1.338c0,0.305-0.158,0.457-0.473,0.457h-1.512
		c-0.294,0-0.441-0.163-0.441-0.488l-0.031-1.149c-0.315,0.021-0.635,0.032-0.961,0.032H64.43z M65.626,17.473
		c-0.326-0.252-0.583-0.559-0.771-0.921s-0.284-0.769-0.284-1.22c0-0.452,0.095-0.864,0.284-1.236s0.449-0.69,0.779-0.953
		c0.331-0.262,0.719-0.467,1.165-0.614c0.446-0.147,0.927-0.22,1.441-0.22s0.992,0.073,1.433,0.22
		c0.441,0.147,0.824,0.352,1.149,0.614c0.325,0.263,0.583,0.58,0.771,0.953s0.284,0.785,0.284,1.236
		c0,0.451-0.095,0.861-0.284,1.228c-0.189,0.357-0.446,0.662-0.771,0.914s-0.708,0.446-1.149,0.583s-0.919,0.205-1.433,0.205
		s-0.995-0.068-1.441-0.205S65.962,17.725,65.626,17.473z M67.736,26.401c-0.357,0.011-0.627-0.079-0.811-0.268
		c-0.184-0.189-0.281-0.462-0.291-0.819l-0.047-2.016c-0.021-0.314,0.131-0.472,0.457-0.472h1.732c0.304,0,0.457,0.157,0.457,0.472
		l-0.016,0.866h6.487c0.305,0,0.457,0.137,0.457,0.409v1.229c0,0.325-0.143,0.488-0.425,0.488L67.736,26.401z M67.091,15.332
		c0,0.315,0.118,0.562,0.354,0.74c0.236,0.179,0.553,0.268,0.953,0.268c0.399,0,0.714-0.089,0.945-0.268
		c0.241-0.178,0.362-0.425,0.362-0.74s-0.118-0.562-0.354-0.74c-0.236-0.178-0.554-0.268-0.953-0.268
		c-0.399,0-0.717,0.089-0.953,0.268C67.209,14.77,67.091,15.017,67.091,15.332z M70.87,22.638c-0.147,0-0.263-0.042-0.347-0.126
		s-0.126-0.199-0.126-0.347v-0.976c0-0.147,0.042-0.263,0.126-0.347s0.2-0.126,0.347-0.126l2.693,0.016L73.5,12.828
		c0-0.315,0.152-0.472,0.457-0.472h1.921c0.315,0,0.467,0.157,0.457,0.472l-0.157,10.015c0,0.314-0.158,0.473-0.473,0.473h-1.637
		c-0.315,0-0.473-0.158-0.473-0.473v-0.221L70.87,22.638z"/>
	<path fill="#FFFFFF" d="M80.696,22.938c-0.116-0.053-0.194-0.135-0.236-0.244c-0.042-0.11-0.026-0.239,0.047-0.386
		c0.524-1.04,0.942-2.108,1.252-3.205c0.31-1.097,0.485-2.149,0.527-3.157H78.57c-0.147,0-0.263-0.042-0.347-0.126
		c-0.084-0.083-0.126-0.199-0.126-0.346V13.82c0-0.147,0.042-0.262,0.126-0.347c0.084-0.084,0.199-0.126,0.347-0.126h5.574
		c0.272,0,0.498,0.076,0.677,0.229s0.268,0.391,0.268,0.716v0.315c0,0.798-0.058,1.588-0.173,2.37s-0.278,1.541-0.488,2.275
		s-0.459,1.436-0.748,2.102c-0.289,0.667-0.601,1.278-0.937,1.835c-0.189,0.304-0.431,0.388-0.725,0.252L80.696,22.938z
		 M87.23,24.921c-0.314,0-0.472-0.157-0.472-0.473V13.3c0-0.315,0.151-0.472,0.456-0.472h1.921c0.315,0,0.468,0.157,0.457,0.472
		l-0.11,3.433l1.465-0.016c0.168,0,0.302,0.05,0.401,0.149c0.1,0.1,0.149,0.234,0.149,0.401v1.292c0,0.168-0.05,0.302-0.149,0.401
		c-0.1,0.1-0.233,0.149-0.401,0.149l-1.544,0.032l-0.157,5.306c0,0.315-0.157,0.473-0.473,0.473H87.23z"/>
	<path fill="#FFFFFF" d="M93.246,18.764c-0.347-0.336-0.617-0.729-0.812-1.181c-0.194-0.451-0.291-0.939-0.291-1.464
		c0-0.514,0.097-1.002,0.291-1.464s0.465-0.866,0.812-1.212c0.346-0.347,0.766-0.622,1.26-0.827
		c0.493-0.205,1.039-0.307,1.638-0.307c0.598,0,1.142,0.102,1.63,0.307c0.487,0.205,0.905,0.48,1.251,0.827
		c0.347,0.346,0.614,0.75,0.804,1.212c0.188,0.462,0.283,0.95,0.283,1.464c0,0.525-0.095,1.013-0.283,1.464
		c-0.189,0.452-0.457,0.843-0.804,1.173c-0.346,0.331-0.764,0.593-1.251,0.787c-0.488,0.194-1.032,0.292-1.63,0.292
		c-0.599,0-1.145-0.097-1.638-0.292C94.012,19.35,93.592,19.09,93.246,18.764z M94.694,16.119c0,0.441,0.157,0.809,0.473,1.103
		c0.314,0.294,0.719,0.441,1.213,0.441c0.493,0,0.897-0.147,1.212-0.441c0.315-0.294,0.473-0.662,0.473-1.103
		s-0.157-0.811-0.473-1.11c-0.314-0.299-0.719-0.449-1.212-0.449c-0.494,0-0.898,0.15-1.213,0.449
		C94.852,15.308,94.694,15.678,94.694,16.119z M95.561,26.59c-0.241,0-0.431-0.07-0.566-0.212c-0.137-0.142-0.211-0.334-0.221-0.575
		l-0.079-4.629c0-0.42,0.205-0.63,0.614-0.63h1.449c0.398,0,0.593,0.205,0.582,0.614v0.457l4.078-0.063V21
		c0-0.209,0.053-0.37,0.158-0.48c0.104-0.11,0.262-0.16,0.472-0.15h1.386c0.431,0,0.636,0.21,0.614,0.63l-0.126,4.74
		c-0.011,0.241-0.084,0.433-0.221,0.574c-0.136,0.142-0.325,0.213-0.566,0.213L95.561,26.59z M97.371,24.496l4.063-0.031v-0.882
		l-4.063,0.031V24.496z M102.096,19.803c-0.315,0-0.473-0.157-0.473-0.472l-0.095-6.503c0-0.315,0.152-0.472,0.457-0.472h1.921
		c0.315,0,0.467,0.157,0.457,0.472l-0.158,6.503c-0.021,0.315-0.178,0.472-0.472,0.472H102.096z"/>
</g>
</svg>
