<?xml version="1.0" encoding="utf-8"?>
<!-- Generator: Adobe Illustrator 16.0.0, SVG Export Plug-In . SVG Version: 6.00 Build 0)  -->
<!DOCTYPE svg PUBLIC "-//W3C//DTD SVG 1.1//EN" "http://www.w3.org/Graphics/SVG/1.1/DTD/svg11.dtd">
<svg version="1.1" id="레이어_1" xmlns="http://www.w3.org/2000/svg" xmlns:xlink="http://www.w3.org/1999/xlink" x="0px"
	 y="0px" width="155px" height="40px" viewBox="0 0 155 40" enable-background="new 0 0 155 40" xml:space="preserve">
<g>
	<path fill="#A5A0F0" d="M155,35c0,2.75-2.25,5-5,5H5c-2.75,0-5-2.25-5-5V5c0-2.75,2.25-5,5-5h145c2.75,0,5,2.25,5,5V35z"/>
</g>
<g>
	<path fill="#FFFFFF" d="M57.735,25.021c-0.155,0.011-0.276-0.031-0.365-0.125c-0.088-0.094-0.132-0.219-0.132-0.373v-1.361
		c0-0.154,0.044-0.276,0.132-0.364c0.089-0.089,0.21-0.133,0.365-0.133h4.249l-0.017-1.594l-2.473,0.083
		c-0.774,0-1.162-0.382-1.162-1.145l-0.017-3.319c0-0.387,0.105-0.678,0.315-0.871c0.21-0.193,0.487-0.291,0.83-0.291l6.24-0.017
		v-0.863h-6.92c-0.177,0-0.318-0.053-0.423-0.158c-0.105-0.105-0.158-0.246-0.158-0.423v-1.294c0-0.177,0.052-0.318,0.158-0.423
		c0.105-0.105,0.246-0.158,0.423-0.158l8.679,0.033c0.343,0,0.623,0.097,0.838,0.29c0.215,0.194,0.318,0.484,0.307,0.872
		l-0.083,3.203c-0.011,0.365-0.11,0.647-0.298,0.846c-0.188,0.199-0.476,0.305-0.863,0.315l-6.223,0.05v0.929l6.854,0.017
		c0.177-0.022,0.307-0.011,0.39,0.033c0.083,0.044,0.135,0.145,0.157,0.299v1.212c0.056,0.331-0.061,0.525-0.348,0.58l-3.27,0.116
		l-0.017,1.66l4.215-0.017c0.155,0,0.276,0.044,0.365,0.133c0.088,0.088,0.133,0.21,0.133,0.364v1.179
		c0,0.154-0.044,0.273-0.133,0.356c-0.089,0.083-0.21,0.13-0.365,0.142L57.735,25.021z"/>
	<path fill="#FFFFFF" d="M71.111,24.855c-0.155,0.011-0.276-0.031-0.365-0.125c-0.088-0.094-0.132-0.219-0.132-0.373v-1.444
		c0-0.154,0.044-0.276,0.132-0.364c0.089-0.089,0.21-0.133,0.365-0.133l11.384-0.033c0.155,0,0.276,0.044,0.365,0.133
		c0.088,0.088,0.133,0.21,0.133,0.365v1.261c0,0.155-0.045,0.273-0.133,0.356c-0.089,0.083-0.21,0.13-0.365,0.142L71.111,24.855z
		 M71.99,15.396c-0.276,0-0.415-0.138-0.415-0.415v-1.825c0-0.276,0.138-0.415,0.415-0.415h9.145c0.287,0,0.524,0.081,0.713,0.241
		c0.188,0.161,0.282,0.412,0.282,0.755v0.332c0,1.106-0.053,2.205-0.157,3.294c-0.105,1.09-0.274,2.205-0.507,3.344
		c-0.066,0.321-0.265,0.481-0.597,0.481l-1.561-0.05c-0.144,0-0.263-0.05-0.356-0.149s-0.13-0.237-0.108-0.415
		c0.045-0.453,0.086-0.918,0.125-1.394c0.038-0.476,0.071-0.94,0.1-1.394c0.027-0.454,0.044-0.885,0.05-1.294
		c0.005-0.409,0.003-0.774-0.009-1.095H71.99z"/>
	<path fill="#FFFFFF" d="M86.628,20.093c-0.521-0.21-0.963-0.501-1.328-0.872c-0.365-0.37-0.646-0.81-0.846-1.319
		s-0.299-1.062-0.299-1.66c0-0.597,0.1-1.156,0.299-1.676s0.48-0.971,0.846-1.353s0.808-0.683,1.328-0.904
		c0.52-0.221,1.101-0.332,1.742-0.332s1.22,0.111,1.734,0.332s0.954,0.522,1.319,0.904s0.645,0.833,0.838,1.353
		s0.29,1.079,0.29,1.676c0,0.598-0.097,1.151-0.29,1.66s-0.473,0.952-0.838,1.328c-0.365,0.365-0.805,0.653-1.319,0.863
		s-1.093,0.315-1.734,0.315S87.147,20.303,86.628,20.093z M87.308,17.553c0.321,0.343,0.758,0.515,1.312,0.515
		c0.542,0,0.974-0.171,1.294-0.515c0.321-0.343,0.481-0.78,0.481-1.311c0-0.531-0.16-0.971-0.481-1.319
		c-0.32-0.348-0.752-0.522-1.294-0.522c-0.575,0-1.016,0.174-1.319,0.522c-0.305,0.349-0.456,0.789-0.456,1.319
		C86.844,16.773,86.998,17.21,87.308,17.553z M88.536,26.664c-0.376,0.011-0.661-0.083-0.854-0.282
		c-0.194-0.199-0.296-0.487-0.308-0.863l-0.1-3.617c-0.021-0.332,0.139-0.498,0.481-0.498h1.826c0.32,0,0.48,0.166,0.48,0.498
		l-0.033,2.373l6.34,0.066c0.32,0,0.481,0.144,0.481,0.432v1.261c0,0.343-0.149,0.515-0.448,0.515L88.536,26.664z M94.643,22.034
		c-0.331,0-0.497-0.166-0.497-0.498l-0.1-9.177c0-0.332,0.16-0.498,0.481-0.498h2.024c0.332,0,0.492,0.166,0.481,0.498l-0.166,9.177
		c-0.022,0.332-0.188,0.498-0.498,0.498H94.643z"/>
</g>
</svg>
