<?xml version="1.0" encoding="utf-8"?>
<!-- Generator: Adobe Illustrator 25.0.0, SVG Export Plug-In . SVG Version: 6.00 Build 0)  -->
<svg version="1.1" id="Layer_1" xmlns="http://www.w3.org/2000/svg" xmlns:xlink="http://www.w3.org/1999/xlink" x="0px" y="0px"
	 viewBox="0 0 194 82" style="enable-background:new 0 0 194 82;" xml:space="preserve">
<style type="text/css">
	.st0{enable-background:new    ;}
	.st1{fill:#A19DD2;}
	.st2{fill:#8C88C9;}
	.st3{fill:#C3BFFF;}
</style>
<g>
	<g class="st0">
		<path class="st1" d="M15.9,39.4c0,0.5-0.4,0.9-0.7,1.4c0.1,0.1,0.2,0.2,0.4,0.3c-0.1,0-0.1,0.1-0.1,0.1c-0.9,0-1.3,0.5-1.9,0.9
			c-0.1,0-0.2,0.1-0.4,0.2c-0.6,0-1.1,0.2-1.6,0.2c-0.5-0.1-0.9-0.3-1.3-0.5c-0.2,0-0.3-0.2-0.4-0.3c0-0.2,0.1-0.5,0-0.7
			c-0.3-0.6,0.1-0.9,0.5-1.4c0.9-0.9,2-1.4,3.2-1.7c0.2,0,0.5,0.1,0.8,0.1s0.6,0,0.9,0C15.5,38.4,16,38.9,15.9,39.4z M47.2,72.1
			c0,0-20,4.2-27.5-3.2c-6.3-6.1-1-12,0.8-13.7c0.2-0.3,0.7-0.2,0.8,0.1c1.1,1.9,5.2,7.7,17.1,6.4c-3.8-2.7-4.9-6.6-5-10.8
			c-0.8,0.3-1.6,0.6-2.4,0.9c-0.1,0-0.2,0-0.4,0c-1-0.3-7.1-2-6.4-8.8c0-0.2,0.2-0.4,0.4-0.5c3.5-0.9,6.7-1.9,9.7-2.7
			c0.7-5.4,2-11.4,2.9-15.3c-14.1,4-16.3,9.8-16.6,12.1c-0.1,0.4-0.6,0.6-0.9,0.3c-2.8-2.6-11.1-11.4-1.2-18.4c0,0,9.6-7.7,29.7-8
			c17.7-0.3,20.6,8.7,21,10.9c0.5,1.9,1.4,12.4-17.4,17.9c0,0,18.9-5.2,20.8,7.9C72.7,47.2,76.1,66.3,47.2,72.1z M32.9,14.2
			c-17.7,4.5-15.8,10.9-15.8,10.9s0.2,0.7,0.8,0.9c0.4,0.1,1-0.1,1.9-1.3C24.4,18.4,32.9,14.2,32.9,14.2z M18,40.7
			c0.2-0.4,0.4-0.7,0.7-0.9c0.3-0.4,0.8-0.4,1.1-0.4c0.7,0.1,0.9,0.5,0.6,1C19.9,41.3,18.6,41.4,18,40.7z M44.1,22.9
			c0.7,0.6,1.2,1.1,1.8,1.8c4.8-1.9,10.1-2.4,15.3-2.6C57.6,20.4,48.1,22.1,44.1,22.9z M67.2,47.3c-0.1-2.7-6.3-4.8-22.1-0.4
			c-0.3,5.6-0.1,10.2,0.2,13.4C63.5,55.6,67.2,49.2,67.2,47.3z M62.5,23.2c-1.7,0-3.4,0.1-5.1,0.3c-3.6,0.3-7.4,0.9-10.7,2.4
			c0.9,1.6,1.3,3.6,0.9,6c0,0-0.4,1.4-0.9,3.6c11.7-4.8,14.9-8.5,15.7-10.4C62.7,24.3,62.7,23.6,62.5,23.2z M63.4,71.4
			c-0.2,0.4-0.4,0.8-0.6,1.1c-0.3,0.4-0.7,0.7-1.1,0.6c-0.7,0-1.2,0.2-1.8,0.2c-0.5,0-0.9-0.3-1.2-0.4c-0.6-0.7,0-1.3,0.2-2l0.1-0.1
			c0.6-0.2,1.1-0.6,1.7-0.7c0.7-0.2,1.4-0.1,2,0.4C62.9,70.8,63.2,71.1,63.4,71.4z M66.3,69.5c-0.5,0.8-1.5,0.7-1.9-0.1
			c0.2-0.3,0.4-0.6,0.6-0.9c0.3-0.3,0.7-0.3,0.9-0.1C66.4,68.6,66.5,69,66.3,69.5z"/>
		<path class="st1" d="M78.5,49.6c0,0.5,0.3,1,0.2,1.5c-0.2,0.4-0.7,0.8-1,1.1c0.1,0.1,0.2,0.2,0.3,0.4c-0.1,0-0.1,0-0.1,0
			c-0.8-0.2-1.4,0.2-2.1,0.5c-0.1,0.1-0.2,0.1-0.4,0.1c-0.6,0-1.1-0.1-1.6-0.2c-0.5-0.2-0.9-0.5-1.1-0.7c-0.2-0.2-0.3-0.4-0.4-0.5
			c0.1-0.2,0.2-0.4,0.2-0.6c-0.1-0.8,0.4-0.9,0.9-1.3c1-0.8,2.2-0.9,3.5-0.9c0.2,0,0.5,0.2,0.7,0.3C77.7,49.5,78.1,49.5,78.5,49.6z
			 M121.5,54.2c2.5,8.1-6.3,19.7-21.4,19.6c-15.3-0.2-21.4-12.3-17.4-17.7c2.9-4.1,7.8-2,9.4-1.1c0.3,0.1,0.4,0.5,0.2,0.7
			c-1.5,2.3-0.9,9.9,7.7,10.4c14.9,0.9,15.3-5.8,15.3-5.8c0.8-6.7-28.7-9.8-28.7-9.8c-8.9-0.9-17.7-8-4.9-24.5
			c16-20.8,31.2-15.8,31.2-15.8c5.8,1.6,10.6,6,10.5,17.3c0,6.9-1.5,10.1-3,12.2c-2.7,3.6-6.4,3.7-9,3.1c0,0-5.3-1.1-6-6.9
			c0-0.4,0.3-0.7,0.7-0.6c0.8,0.2,2.4,0.4,4-0.5c2.7-1.4,5.3-5.2,5.1-11.2c0,0,0-0.8-0.1-1.8c-1.3,0.1-2.6,0.2-3.9,0.5
			c-4.7,0.9-9.3,2.8-13.4,5.4c-2.7,1.8-5.1,3.9-7.4,6.1c-1.4,2.7-2.4,5-2.7,6.1c-0.1,0.2,0.1,0.6,0.4,0.6
			C93.2,41.8,118.5,43.9,121.5,54.2z M82.2,52.7c-0.7,0.7-2,0.5-2.5-0.4c0.3-0.3,0.6-0.5,0.9-0.8s0.8-0.2,1.1,0
			C82.4,51.8,82.6,52.3,82.2,52.7z M99.5,16c4.4-2.4,3.2-3.1,3.2-3.1c-0.6-0.7-2.4-0.1-3.9,0.8c-9.3,5-14.3,13-14.3,13
			C91.6,19.8,96.9,17.4,99.5,16z M92.2,30.1c6.3-5.1,14.3-8.8,22.5-9.1c-0.3-1.8-1-4-2.8-4.3C103.3,15.1,96.5,23,92.2,30.1z
			 M116.1,72.5c-0.2,0.3-0.4,0.5-0.9,0.5c-0.3-0.1-0.7-0.1-0.9-0.2c-0.3-0.9,0.5-1.6,1.2-1.3C116.1,71.6,116.3,72.1,116.1,72.5z
			 M121.3,68.8c0.1,0.9-0.3,1.4-0.9,1.9c-0.5,0.4-1,0.6-1.6,0.9c0,0,0,0-0.1,0c-0.7-0.2-1.4-0.2-1.7-1c0.2-0.4,0.3-0.9,0.5-1.1
			c0.4-0.5,0.9-0.9,1.1-1.3c0.4-0.4,0.8-0.6,1.2-0.5c0.4,0.1,0.8,0.1,1.2,0.2C121.2,68.2,121.3,68.5,121.3,68.8z"/>
		<path class="st1" d="M131,49.6c0,0.5,0.3,1,0.2,1.5c-0.2,0.4-0.7,0.8-1,1.1c0.1,0.1,0.2,0.2,0.3,0.4c-0.1,0-0.1,0-0.1,0
			c-0.8-0.2-1.4,0.2-2.1,0.5c-0.1,0.1-0.2,0.1-0.4,0.1c-0.6,0-1.1-0.1-1.6-0.2c-0.5-0.2-0.9-0.5-1.1-0.7c-0.2-0.2-0.3-0.4-0.4-0.5
			c0.1-0.2,0.2-0.4,0.2-0.6c-0.1-0.8,0.4-0.9,0.9-1.3c1-0.8,2.2-0.9,3.5-0.9c0.2,0,0.5,0.2,0.7,0.3C130.2,49.5,130.6,49.5,131,49.6z
			 M174,54.2c2.5,8.1-6.3,19.7-21.4,19.6c-15.3-0.2-21.4-12.3-17.4-17.7c2.9-4.1,7.8-2,9.4-1.1c0.3,0.1,0.4,0.5,0.2,0.7
			c-1.5,2.3-0.9,9.9,7.7,10.4c14.9,0.9,15.3-5.8,15.3-5.8c0.8-6.7-28.7-9.8-28.7-9.8c-8.9-0.9-17.7-8-4.9-24.5
			c16-20.8,31.2-15.8,31.2-15.8c5.8,1.6,10.6,6,10.5,17.3c0,6.9-1.5,10.1-3,12.2c-2.7,3.6-6.4,3.7-9,3.1c0,0-5.3-1.1-6-6.9
			c0-0.4,0.3-0.7,0.7-0.6c0.8,0.2,2.4,0.4,4-0.5c2.7-1.4,5.3-5.2,5.1-11.2c0,0,0-0.8-0.1-1.8c-1.3,0.1-2.6,0.2-3.9,0.5
			c-4.7,0.9-9.3,2.8-13.4,5.4c-2.7,1.8-5.1,3.9-7.4,6.1c-1.4,2.7-2.4,5-2.7,6.1c-0.1,0.2,0.1,0.6,0.4,0.6
			C145.7,41.8,170.9,43.9,174,54.2z M134.7,52.7c-0.7,0.7-2,0.5-2.5-0.4c0.3-0.3,0.6-0.5,0.9-0.8s0.8-0.2,1.1,0
			C134.9,51.8,135,52.3,134.7,52.7z M152,16c4.4-2.4,3.2-3.1,3.2-3.1c-0.6-0.7-2.4-0.1-3.9,0.8c-9.3,5-14.3,13-14.3,13
			C144,19.8,149.3,17.4,152,16z M144.7,30.1C151,25,159,21.3,167.2,21c-0.3-1.8-1-4-2.8-4.3C155.8,15.1,149,23,144.7,30.1z
			 M168.6,72.5c-0.2,0.3-0.4,0.5-0.9,0.5c-0.3-0.1-0.7-0.1-0.9-0.2c-0.3-0.9,0.5-1.6,1.2-1.3C168.6,71.6,168.8,72.1,168.6,72.5z
			 M173.8,68.8c0.1,0.9-0.3,1.4-0.9,1.9c-0.5,0.4-1,0.6-1.6,0.9c0,0,0,0-0.1,0c-0.7-0.2-1.4-0.2-1.7-1c0.2-0.4,0.3-0.9,0.5-1.1
			c0.4-0.5,0.9-0.9,1.1-1.3c0.4-0.4,0.8-0.6,1.2-0.5c0.4,0.1,0.8,0.1,1.2,0.2C173.7,68.2,173.8,68.5,173.8,68.8z"/>
	</g>
	<g class="st0">
		<path class="st2" d="M14.9,40.4c0,0.5-0.4,0.9-0.7,1.4c0.1,0.1,0.2,0.2,0.4,0.3c-0.1,0-0.1,0.1-0.1,0.1c-0.9,0-1.3,0.5-1.9,0.9
			c-0.1,0-0.2,0.1-0.4,0.2c-0.6,0-1.1,0.2-1.6,0.2c-0.5-0.1-0.9-0.3-1.3-0.5c-0.2,0-0.3-0.2-0.4-0.3c0-0.2,0.1-0.5,0-0.7
			c-0.3-0.6,0.1-0.9,0.5-1.4c0.9-0.9,2-1.4,3.2-1.7c0.2,0,0.5,0.1,0.8,0.1s0.6,0,0.9,0C14.5,39.4,15,39.9,14.9,40.4z M46.2,73.1
			c0,0-20,4.2-27.5-3.2c-6.3-6.1-1-12,0.8-13.7c0.2-0.3,0.7-0.2,0.8,0.1c1.1,1.9,5.2,7.7,17.1,6.4c-3.8-2.7-4.9-6.6-5-10.8
			c-0.8,0.3-1.6,0.6-2.4,0.9c-0.1,0-0.2,0-0.4,0c-1-0.3-7.1-2-6.4-8.8c0-0.2,0.2-0.4,0.4-0.5c3.5-0.9,6.7-1.9,9.7-2.7
			c0.7-5.4,2-11.4,2.9-15.3c-14.1,4-16.3,9.8-16.6,12.1c-0.1,0.4-0.6,0.6-0.9,0.3c-2.8-2.6-11.1-11.4-1.2-18.4c0,0,9.6-7.7,29.7-8
			c17.7-0.3,20.6,8.7,21,10.9c0.5,1.9,1.4,12.4-17.4,17.9c0,0,18.9-5.2,20.8,7.9C71.7,48.2,75.1,67.3,46.2,73.1z M31.9,15.2
			c-17.7,4.5-15.8,10.9-15.8,10.9s0.2,0.7,0.8,0.9c0.4,0.1,1-0.1,1.9-1.3C23.4,19.4,31.9,15.2,31.9,15.2z M17,41.7
			c0.2-0.4,0.4-0.7,0.7-0.9c0.3-0.4,0.8-0.4,1.1-0.4c0.7,0.1,0.9,0.5,0.6,1C18.9,42.3,17.6,42.4,17,41.7z M43.1,23.9
			c0.7,0.6,1.2,1.1,1.8,1.8c4.8-1.9,10.1-2.4,15.3-2.6C56.6,21.4,47.1,23.1,43.1,23.9z M66.2,48.3c-0.1-2.7-6.3-4.8-22.1-0.4
			c-0.3,5.6-0.1,10.2,0.2,13.4C62.5,56.6,66.2,50.2,66.2,48.3z M61.5,24.2c-1.7,0-3.4,0.1-5.1,0.3c-3.6,0.3-7.4,0.9-10.7,2.4
			c0.9,1.6,1.3,3.6,0.9,6c0,0-0.4,1.4-0.9,3.6c11.7-4.8,14.9-8.5,15.7-10.4C61.7,25.3,61.7,24.6,61.5,24.2z M62.4,72.4
			c-0.2,0.4-0.4,0.8-0.6,1.1c-0.3,0.4-0.7,0.7-1.1,0.6c-0.7,0-1.2,0.2-1.8,0.2c-0.5,0-0.9-0.3-1.2-0.4c-0.6-0.7,0-1.3,0.2-2l0.1-0.1
			c0.6-0.2,1.1-0.6,1.7-0.7c0.7-0.2,1.4-0.1,2,0.4C61.9,71.8,62.2,72.1,62.4,72.4z M65.3,70.5c-0.5,0.8-1.5,0.7-1.9-0.1
			c0.2-0.3,0.4-0.6,0.6-0.9c0.3-0.3,0.7-0.3,0.9-0.1C65.4,69.6,65.5,70,65.3,70.5z"/>
		<path class="st2" d="M77.5,50.6c0,0.5,0.3,1,0.2,1.5c-0.2,0.4-0.7,0.8-1,1.1c0.1,0.1,0.2,0.2,0.3,0.4c-0.1,0-0.1,0-0.1,0
			c-0.8-0.2-1.4,0.2-2.1,0.5c-0.1,0.1-0.2,0.1-0.4,0.1c-0.6,0-1.1-0.1-1.6-0.2c-0.5-0.2-0.9-0.5-1.1-0.7c-0.2-0.2-0.3-0.4-0.4-0.5
			c0.1-0.2,0.2-0.4,0.2-0.6c-0.1-0.8,0.4-0.9,0.9-1.3c1-0.8,2.2-0.9,3.5-0.9c0.2,0,0.5,0.2,0.7,0.3C76.7,50.5,77.1,50.5,77.5,50.6z
			 M120.5,55.2c2.5,8.1-6.3,19.7-21.4,19.6c-15.3-0.2-21.4-12.3-17.4-17.7c2.9-4.1,7.8-2,9.4-1.1c0.3,0.1,0.4,0.5,0.2,0.7
			c-1.5,2.3-0.9,9.9,7.7,10.4c14.9,0.9,15.3-5.8,15.3-5.8c0.8-6.7-28.7-9.8-28.7-9.8c-8.9-0.9-17.7-8-4.9-24.5
			c16-20.8,31.2-15.8,31.2-15.8c5.8,1.6,10.6,6,10.5,17.3c0,6.9-1.5,10.1-3,12.2c-2.7,3.6-6.4,3.7-9,3.1c0,0-5.3-1.1-6-6.9
			c0-0.4,0.3-0.7,0.7-0.6c0.8,0.2,2.4,0.4,4-0.5c2.7-1.4,5.3-5.2,5.1-11.2c0,0,0-0.8-0.1-1.8c-1.3,0.1-2.6,0.2-3.9,0.5
			c-4.7,0.9-9.3,2.8-13.4,5.4c-2.7,1.8-5.1,3.9-7.4,6.1c-1.4,2.7-2.4,5-2.7,6.1c-0.1,0.2,0.1,0.6,0.4,0.6
			C92.2,42.8,117.5,44.9,120.5,55.2z M81.2,53.7c-0.7,0.7-2,0.5-2.5-0.4c0.3-0.3,0.6-0.5,0.9-0.8s0.8-0.2,1.1,0
			C81.4,52.8,81.6,53.3,81.2,53.7z M98.5,17c4.4-2.4,3.2-3.1,3.2-3.1c-0.6-0.7-2.4-0.1-3.9,0.8c-9.3,5-14.3,13-14.3,13
			C90.6,20.8,95.9,18.4,98.5,17z M91.2,31.1c6.3-5.1,14.3-8.8,22.5-9.1c-0.3-1.8-1-4-2.8-4.3C102.3,16.1,95.5,24,91.2,31.1z
			 M115.1,73.5c-0.2,0.3-0.4,0.5-0.9,0.5c-0.3-0.1-0.7-0.1-0.9-0.2c-0.3-0.9,0.5-1.6,1.2-1.3C115.1,72.6,115.3,73.1,115.1,73.5z
			 M120.3,69.8c0.1,0.9-0.3,1.4-0.9,1.9c-0.5,0.4-1,0.6-1.6,0.9c0,0,0,0-0.1,0c-0.7-0.2-1.4-0.2-1.7-1c0.2-0.4,0.3-0.9,0.5-1.1
			c0.4-0.5,0.9-0.9,1.1-1.3c0.4-0.4,0.8-0.6,1.2-0.5c0.4,0.1,0.8,0.1,1.2,0.2C120.2,69.2,120.3,69.5,120.3,69.8z"/>
		<path class="st2" d="M130,50.6c0,0.5,0.3,1,0.2,1.5c-0.2,0.4-0.7,0.8-1,1.1c0.1,0.1,0.2,0.2,0.3,0.4c-0.1,0-0.1,0-0.1,0
			c-0.8-0.2-1.4,0.2-2.1,0.5c-0.1,0.1-0.2,0.1-0.4,0.1c-0.6,0-1.1-0.1-1.6-0.2c-0.5-0.2-0.9-0.5-1.1-0.7c-0.2-0.2-0.3-0.4-0.4-0.5
			c0.1-0.2,0.2-0.4,0.2-0.6c-0.1-0.8,0.4-0.9,0.9-1.3c1-0.8,2.2-0.9,3.5-0.9c0.2,0,0.5,0.2,0.7,0.3C129.2,50.5,129.6,50.5,130,50.6z
			 M173,55.2c2.5,8.1-6.3,19.7-21.4,19.6c-15.3-0.2-21.4-12.3-17.4-17.7c2.9-4.1,7.8-2,9.4-1.1c0.3,0.1,0.4,0.5,0.2,0.7
			c-1.5,2.3-0.9,9.9,7.7,10.4c14.9,0.9,15.3-5.8,15.3-5.8c0.8-6.7-28.7-9.8-28.7-9.8c-8.9-0.9-17.7-8-4.9-24.5
			c16-20.8,31.2-15.8,31.2-15.8c5.8,1.6,10.6,6,10.5,17.3c0,6.9-1.5,10.1-3,12.2c-2.7,3.6-6.4,3.7-9,3.1c0,0-5.3-1.1-6-6.9
			c0-0.4,0.3-0.7,0.7-0.6c0.8,0.2,2.4,0.4,4-0.5c2.7-1.4,5.3-5.2,5.1-11.2c0,0,0-0.8-0.1-1.8c-1.3,0.1-2.6,0.2-3.9,0.5
			c-4.7,0.9-9.3,2.8-13.4,5.4c-2.7,1.8-5.1,3.9-7.4,6.1c-1.4,2.7-2.4,5-2.7,6.1c-0.1,0.2,0.1,0.6,0.4,0.6
			C144.7,42.8,169.9,44.9,173,55.2z M133.7,53.7c-0.7,0.7-2,0.5-2.5-0.4c0.3-0.3,0.6-0.5,0.9-0.8s0.8-0.2,1.1,0
			C133.9,52.8,134,53.3,133.7,53.7z M151,17c4.4-2.4,3.2-3.1,3.2-3.1c-0.6-0.7-2.4-0.1-3.9,0.8c-9.3,5-14.3,13-14.3,13
			C143,20.8,148.3,18.4,151,17z M143.7,31.1C150,26,158,22.3,166.2,22c-0.3-1.8-1-4-2.8-4.3C154.8,16.1,148,24,143.7,31.1z
			 M167.6,73.5c-0.2,0.3-0.4,0.5-0.9,0.5c-0.3-0.1-0.7-0.1-0.9-0.2c-0.3-0.9,0.5-1.6,1.2-1.3C167.6,72.6,167.8,73.1,167.6,73.5z
			 M172.8,69.8c0.1,0.9-0.3,1.4-0.9,1.9c-0.5,0.4-1,0.6-1.6,0.9c0,0,0,0-0.1,0c-0.7-0.2-1.4-0.2-1.7-1c0.2-0.4,0.3-0.9,0.5-1.1
			c0.4-0.5,0.9-0.9,1.1-1.3c0.4-0.4,0.8-0.6,1.2-0.5c0.4,0.1,0.8,0.1,1.2,0.2C172.7,69.2,172.8,69.5,172.8,69.8z"/>
	</g>
	<g class="st0">
		<g>
			<path class="st3" d="M16.9,38.4c0,0.5-0.4,0.9-0.7,1.4c0.1,0.1,0.2,0.2,0.4,0.3c-0.1,0-0.1,0.1-0.1,0.1c-0.9,0-1.3,0.5-1.9,0.9
				c-0.1,0-0.2,0.1-0.4,0.2c-0.6,0-1.1,0.2-1.6,0.2c-0.5-0.1-0.9-0.3-1.3-0.5c-0.2,0-0.3-0.2-0.4-0.3c0-0.2,0.1-0.5,0-0.7
				c-0.3-0.6,0.1-0.9,0.5-1.4c0.9-0.9,2-1.4,3.2-1.7c0.2,0,0.5,0.1,0.8,0.1s0.6,0,0.9,0C16.5,37.4,17,37.9,16.9,38.4z M48.2,71.1
				c0,0-20,4.2-27.5-3.2c-6.3-6.1-1-12,0.8-13.7c0.2-0.3,0.7-0.2,0.8,0.1c1.1,1.9,5.2,7.7,17.1,6.4c-3.8-2.7-4.9-6.6-5-10.8
				c-0.8,0.3-1.6,0.6-2.4,0.9c-0.1,0-0.2,0-0.4,0c-1-0.3-7.1-2-6.4-8.8c0-0.2,0.2-0.4,0.4-0.5c3.5-0.9,6.7-1.9,9.7-2.7
				c0.7-5.4,2-11.4,2.9-15.3c-14.1,4-16.3,9.8-16.6,12.1c-0.1,0.4-0.6,0.6-0.9,0.3c-2.8-2.6-11.1-11.4-1.2-18.4c0,0,9.6-7.7,29.7-8
				c17.7-0.3,20.6,8.7,21,10.9c0.5,1.9,1.4,12.4-17.4,17.9c0,0,18.9-5.2,20.8,7.9C73.7,46.2,77.1,65.3,48.2,71.1z M33.9,13.2
				c-17.7,4.5-15.8,10.9-15.8,10.9s0.2,0.7,0.8,0.9c0.4,0.1,1-0.1,1.9-1.3C25.4,17.4,33.9,13.2,33.9,13.2z M19,39.7
				c0.2-0.4,0.4-0.7,0.7-0.9c0.3-0.4,0.8-0.4,1.1-0.4c0.7,0.1,0.9,0.5,0.6,1C20.9,40.3,19.6,40.4,19,39.7z M45.1,21.9
				c0.7,0.6,1.2,1.1,1.8,1.8c4.8-1.9,10.1-2.4,15.3-2.6C58.6,19.4,49.1,21.1,45.1,21.9z M68.2,46.3c-0.1-2.7-6.3-4.8-22.1-0.4
				c-0.3,5.6-0.1,10.2,0.2,13.4C64.5,54.6,68.2,48.2,68.2,46.3z M63.5,22.2c-1.7,0-3.4,0.1-5.1,0.3c-3.6,0.3-7.4,0.9-10.7,2.4
				c0.9,1.6,1.3,3.6,0.9,6c0,0-0.4,1.4-0.9,3.6c11.7-4.8,14.9-8.5,15.7-10.4C63.7,23.3,63.7,22.6,63.5,22.2z M64.4,70.4
				c-0.2,0.4-0.4,0.8-0.6,1.1c-0.3,0.4-0.7,0.7-1.1,0.6c-0.7,0-1.2,0.2-1.8,0.2c-0.5,0-0.9-0.3-1.2-0.4c-0.6-0.7,0-1.3,0.2-2
				l0.1-0.1c0.6-0.2,1.1-0.6,1.7-0.7c0.7-0.2,1.4-0.1,2,0.4C63.9,69.8,64.2,70.1,64.4,70.4z M67.3,68.5c-0.5,0.8-1.5,0.7-1.9-0.1
				c0.2-0.3,0.4-0.6,0.6-0.9c0.3-0.3,0.7-0.3,0.9-0.1C67.4,67.6,67.5,68,67.3,68.5z"/>
		</g>
		<g>
			<path class="st3" d="M79.5,48.6c0,0.5,0.3,1,0.2,1.5c-0.2,0.4-0.7,0.8-1,1.1c0.1,0.1,0.2,0.2,0.3,0.4c-0.1,0-0.1,0-0.1,0
				c-0.8-0.2-1.4,0.2-2.1,0.5c-0.1,0.1-0.2,0.1-0.4,0.1c-0.6,0-1.1-0.1-1.6-0.2c-0.5-0.2-0.9-0.5-1.1-0.7c-0.2-0.2-0.3-0.4-0.4-0.5
				c0.1-0.2,0.2-0.4,0.2-0.6c-0.1-0.8,0.4-0.9,0.9-1.3c1-0.8,2.2-0.9,3.5-0.9c0.2,0,0.5,0.2,0.7,0.3C78.7,48.5,79.1,48.5,79.5,48.6z
				 M122.5,53.2c2.5,8.1-6.3,19.7-21.4,19.6c-15.3-0.2-21.4-12.3-17.4-17.7c2.9-4.1,7.8-2,9.4-1.1c0.3,0.1,0.4,0.5,0.2,0.7
				c-1.5,2.3-0.9,9.9,7.7,10.4c14.9,0.9,15.3-5.8,15.3-5.8c0.8-6.7-28.7-9.8-28.7-9.8c-8.9-0.9-17.7-8-4.9-24.5
				c16-20.8,31.2-15.8,31.2-15.8c5.8,1.6,10.6,6,10.5,17.3c0,6.9-1.5,10.1-3,12.2c-2.7,3.6-6.4,3.7-9,3.1c0,0-5.3-1.1-6-6.9
				c0-0.4,0.3-0.7,0.7-0.6c0.8,0.2,2.4,0.4,4-0.5c2.7-1.4,5.3-5.2,5.1-11.2c0,0,0-0.8-0.1-1.8c-1.3,0.1-2.6,0.2-3.9,0.5
				c-4.7,0.9-9.3,2.8-13.4,5.4c-2.7,1.8-5.1,3.9-7.4,6.1c-1.4,2.7-2.4,5-2.7,6.1c-0.1,0.2,0.1,0.6,0.4,0.6
				C94.2,40.8,119.5,42.9,122.5,53.2z M83.2,51.7c-0.7,0.7-2,0.5-2.5-0.4c0.3-0.3,0.6-0.5,0.9-0.8s0.8-0.2,1.1,0
				C83.4,50.8,83.6,51.3,83.2,51.7z M100.5,15c4.4-2.4,3.2-3.1,3.2-3.1c-0.6-0.7-2.4-0.1-3.9,0.8c-9.3,5-14.3,13-14.3,13
				C92.6,18.8,97.9,16.4,100.5,15z M93.2,29.1c6.3-5.1,14.3-8.8,22.5-9.1c-0.3-1.8-1-4-2.8-4.3C104.3,14.1,97.5,22,93.2,29.1z
				 M117.1,71.5c-0.2,0.3-0.4,0.5-0.9,0.5c-0.3-0.1-0.7-0.1-0.9-0.2c-0.3-0.9,0.5-1.6,1.2-1.3C117.1,70.6,117.3,71.1,117.1,71.5z
				 M122.3,67.8c0.1,0.9-0.3,1.4-0.9,1.9c-0.5,0.4-1,0.6-1.6,0.9c0,0,0,0-0.1,0c-0.7-0.2-1.4-0.2-1.7-1c0.2-0.4,0.3-0.9,0.5-1.1
				c0.4-0.5,0.9-0.9,1.1-1.3c0.4-0.4,0.8-0.6,1.2-0.5c0.4,0.1,0.8,0.1,1.2,0.2C122.2,67.2,122.3,67.5,122.3,67.8z"/>
		</g>
		<g>
			<path class="st3" d="M132,48.6c0,0.5,0.3,1,0.2,1.5c-0.2,0.4-0.7,0.8-1,1.1c0.1,0.1,0.2,0.2,0.3,0.4c-0.1,0-0.1,0-0.1,0
				c-0.8-0.2-1.4,0.2-2.1,0.5c-0.1,0.1-0.2,0.1-0.4,0.1c-0.6,0-1.1-0.1-1.6-0.2c-0.5-0.2-0.9-0.5-1.1-0.7c-0.2-0.2-0.3-0.4-0.4-0.5
				c0.1-0.2,0.2-0.4,0.2-0.6c-0.1-0.8,0.4-0.9,0.9-1.3c1-0.8,2.2-0.9,3.5-0.9c0.2,0,0.5,0.2,0.7,0.3C131.2,48.5,131.6,48.5,132,48.6
				z M175,53.2c2.5,8.1-6.3,19.7-21.4,19.6c-15.3-0.2-21.4-12.3-17.4-17.7c2.9-4.1,7.8-2,9.4-1.1c0.3,0.1,0.4,0.5,0.2,0.7
				c-1.5,2.3-0.9,9.9,7.7,10.4c14.9,0.9,15.3-5.8,15.3-5.8c0.8-6.7-28.7-9.8-28.7-9.8c-8.9-0.9-17.7-8-4.9-24.5
				c16-20.8,31.2-15.8,31.2-15.8c5.8,1.6,10.6,6,10.5,17.3c0,6.9-1.5,10.1-3,12.2c-2.7,3.6-6.4,3.7-9,3.1c0,0-5.3-1.1-6-6.9
				c0-0.4,0.3-0.7,0.7-0.6c0.8,0.2,2.4,0.4,4-0.5c2.7-1.4,5.3-5.2,5.1-11.2c0,0,0-0.8-0.1-1.8c-1.3,0.1-2.6,0.2-3.9,0.5
				c-4.7,0.9-9.3,2.8-13.4,5.4c-2.7,1.8-5.1,3.9-7.4,6.1c-1.4,2.7-2.4,5-2.7,6.1c-0.1,0.2,0.1,0.6,0.4,0.6
				C146.7,40.8,171.9,42.9,175,53.2z M135.7,51.7c-0.7,0.7-2,0.5-2.5-0.4c0.3-0.3,0.6-0.5,0.9-0.8s0.8-0.2,1.1,0
				C135.9,50.8,136,51.3,135.7,51.7z M153,15c4.4-2.4,3.2-3.1,3.2-3.1c-0.6-0.7-2.4-0.1-3.9,0.8c-9.3,5-14.3,13-14.3,13
				C145,18.8,150.3,16.4,153,15z M145.7,29.1C152,24,160,20.3,168.2,20c-0.3-1.8-1-4-2.8-4.3C156.8,14.1,150,22,145.7,29.1z
				 M169.6,71.5c-0.2,0.3-0.4,0.5-0.9,0.5c-0.3-0.1-0.7-0.1-0.9-0.2c-0.3-0.9,0.5-1.6,1.2-1.3C169.6,70.6,169.8,71.1,169.6,71.5z
				 M174.8,67.8c0.1,0.9-0.3,1.4-0.9,1.9c-0.5,0.4-1,0.6-1.6,0.9c0,0,0,0-0.1,0c-0.7-0.2-1.4-0.2-1.7-1c0.2-0.4,0.3-0.9,0.5-1.1
				c0.4-0.5,0.9-0.9,1.1-1.3c0.4-0.4,0.8-0.6,1.2-0.5c0.4,0.1,0.8,0.1,1.2,0.2C174.7,67.2,174.8,67.5,174.8,67.8z"/>
		</g>
	</g>
</g>
</svg>
