<?xml version="1.0" encoding="utf-8"?>
<!-- Generator: Adobe Illustrator 16.0.0, SVG Export Plug-In . SVG Version: 6.00 Build 0)  -->
<!DOCTYPE svg PUBLIC "-//W3C//DTD SVG 1.1//EN" "http://www.w3.org/Graphics/SVG/1.1/DTD/svg11.dtd">
<svg version="1.1" id="레이어_1" xmlns="http://www.w3.org/2000/svg" xmlns:xlink="http://www.w3.org/1999/xlink" x="0px"
	 y="0px" width="150.24px" height="42.52px" viewBox="0 0 150.24 42.52" enable-background="new 0 0 150.24 42.52"
	 xml:space="preserve">
<path fill="#3CB15A" d="M146.728,40.892H3.507c-1.641,0-2.983-1.342-2.983-2.983V4.092c0-1.641,1.343-2.984,2.983-2.984h143.221
	c1.642,0,2.983,1.343,2.983,2.984v33.816C149.711,39.55,148.369,40.892,146.728,40.892"/>
<polygon fill="#FFFFFF" points="30.206,22.422 25.719,16 22,16 22,28 25.896,28 25.896,21.578 30.383,28 34.102,28 34.102,16 
	30.206,16 "/>
<path fill="#FFFFFF" d="M44.868,24.268v-8.231H46.1v7.153h0.462c0.765,0,1.468-0.054,2.107-0.162
	c0.639-0.106,1.164-0.207,1.575-0.299v1.028c-0.224,0.066-0.485,0.13-0.784,0.191s-0.618,0.116-0.959,0.163
	c-0.341,0.048-0.689,0.086-1.043,0.113c-0.355,0.028-0.7,0.043-1.036,0.043H44.868z M51.098,15.224h1.19v12.319h-1.19v-7.335h-2.772
	v-1.051h2.772V15.224z M55.144,27.865H53.94V15.083h1.204V27.865z"/>
<path fill="#FFFFFF" d="M63.32,20.382c0,0.748-0.084,1.41-0.253,1.985c-0.168,0.574-0.4,1.053-0.694,1.438
	c-0.295,0.383-0.644,0.672-1.045,0.868c-0.402,0.197-0.833,0.294-1.291,0.294s-0.886-0.097-1.284-0.294
	c-0.397-0.196-0.746-0.485-1.045-0.868c-0.299-0.385-0.536-0.863-0.708-1.438c-0.173-0.575-0.26-1.237-0.26-1.985
	c0-0.747,0.087-1.406,0.26-1.977c0.172-0.57,0.409-1.047,0.708-1.43c0.299-0.383,0.648-0.673,1.045-0.869
	c0.398-0.196,0.826-0.294,1.284-0.294s0.889,0.098,1.291,0.294c0.401,0.196,0.75,0.486,1.045,0.869
	c0.294,0.383,0.526,0.86,0.694,1.43C63.236,18.976,63.32,19.635,63.32,20.382 M62.088,20.382c0-0.521-0.047-0.996-0.14-1.425
	c-0.094-0.428-0.226-0.796-0.399-1.103c-0.173-0.308-0.387-0.545-0.644-0.713c-0.257-0.167-0.549-0.251-0.875-0.251
	c-0.327,0-0.618,0.084-0.875,0.251c-0.257,0.168-0.471,0.405-0.644,0.713c-0.173,0.307-0.306,0.675-0.399,1.103
	c-0.093,0.429-0.14,0.904-0.14,1.425c0,0.522,0.047,0.997,0.14,1.426c0.093,0.428,0.226,0.795,0.399,1.104
	c0.173,0.307,0.387,0.546,0.644,0.719c0.257,0.172,0.548,0.26,0.875,0.26c0.326,0,0.618-0.088,0.875-0.26
	c0.257-0.173,0.471-0.412,0.644-0.719c0.173-0.309,0.305-0.676,0.399-1.104C62.041,21.379,62.088,20.904,62.088,20.382
	 M65.728,15.083h1.204v12.782h-1.204V15.083z"/>
<path fill="#FFFFFF" d="M74.73,19.578h2.997v-4.495h1.203v12.782h-1.203v-7.238H74.73v3.752h-5.712l0.014-8.33h1.232v3.164h3.276
	v-3.164h1.19V19.578z M73.554,20.235H70.25v3.123h3.304V20.235z"/>
<g>
	<path fill="#FFFFFF" d="M83.42,24.581l-0.863-0.715c0.566-0.382,1.09-0.819,1.572-1.313c0.481-0.494,0.89-1.059,1.223-1.696
		c0.334-0.637,0.582-1.354,0.744-2.151s0.207-1.686,0.133-2.665h1.265c0.019,0.572,0,1.114-0.056,1.625
		c-0.056,0.512-0.135,1.001-0.236,1.469c0.334,0.893,0.807,1.709,1.418,2.45c0.612,0.742,1.34,1.376,2.184,1.905l-0.779,0.832
		c-0.695-0.46-1.318-1.003-1.869-1.632c-0.553-0.628-1.022-1.336-1.412-2.125c-0.352,0.85-0.809,1.606-1.369,2.268
		C84.813,23.496,84.16,24.078,83.42,24.581z M92.207,15.312h1.195v11.87h-1.195V15.312z"/>
</g>
<g>
	<path fill="#FFFFFF" d="M100.279,18.783c0.354,0.416,0.781,0.802,1.287,1.157c0.505,0.355,0.989,0.65,1.453,0.884l-0.779,0.819
		c-0.473-0.26-0.936-0.567-1.391-0.923c-0.453-0.355-0.871-0.745-1.251-1.17c-0.306,0.312-0.635,0.604-0.987,0.877
		c-0.352,0.273-0.705,0.518-1.057,0.734c-0.352,0.217-0.702,0.41-1.05,0.579s-0.675,0.306-0.979,0.41l-0.779-0.819
		c0.621-0.208,1.219-0.477,1.794-0.806c0.574-0.33,1.099-0.693,1.571-1.092c0.473-0.398,0.878-0.823,1.217-1.274
		c0.338-0.451,0.572-0.91,0.701-1.378c-0.52,0.018-1.031,0.028-1.536,0.032c-0.505,0.005-1.013,0.007-1.522,0.007h-1.46v-0.962
		h2.308c0.594,0,1.193,0,1.801,0s1.235-0.008,1.885-0.026c-0.047,0.546-0.179,1.064-0.396,1.554
		C100.889,17.875,100.613,18.341,100.279,18.783z M103.631,27.221v-3.315h-6.869v-0.962h8.064v4.277H103.631z M106.828,19.199
		h-2.002v3.068h-1.195v-6.968h1.195v2.899h2.002V19.199z"/>
</g>
<g>
	<path fill="#FFFFFF" d="M107.324,18.731V17.73h7.73v1.001H107.324z M108.158,22.047c0-0.373,0.077-0.72,0.23-1.041
		c0.152-0.321,0.365-0.598,0.639-0.832c0.273-0.234,0.598-0.418,0.974-0.553c0.376-0.134,0.78-0.202,1.217-0.202
		c0.436,0,0.839,0.067,1.21,0.202c0.37,0.135,0.692,0.318,0.966,0.553c0.273,0.234,0.487,0.511,0.64,0.832
		c0.152,0.32,0.229,0.667,0.229,1.041c0,0.381-0.077,0.732-0.229,1.053s-0.366,0.598-0.64,0.832
		c-0.273,0.233-0.596,0.416-0.966,0.545c-0.371,0.131-0.774,0.195-1.21,0.195c-0.437,0-0.841-0.064-1.217-0.195
		c-0.376-0.129-0.7-0.312-0.974-0.545c-0.273-0.234-0.486-0.512-0.639-0.832C108.235,22.779,108.158,22.428,108.158,22.047z
		 M109.076,16.794v-1.001h4.241v1.001H109.076z M109.354,22.059c0,0.243,0.046,0.467,0.14,0.67c0.092,0.204,0.222,0.379,0.389,0.527
		c0.167,0.146,0.363,0.262,0.591,0.344s0.476,0.123,0.744,0.123c0.259,0,0.503-0.041,0.729-0.123
		c0.228-0.082,0.424-0.197,0.592-0.344c0.166-0.148,0.296-0.323,0.389-0.527c0.093-0.203,0.139-0.427,0.139-0.67
		c0-0.242-0.046-0.465-0.139-0.669s-0.223-0.381-0.389-0.533c-0.168-0.151-0.364-0.269-0.592-0.351
		c-0.227-0.083-0.471-0.124-0.729-0.124c-0.269,0-0.517,0.041-0.744,0.124c-0.228,0.082-0.424,0.199-0.591,0.351
		c-0.167,0.152-0.297,0.33-0.389,0.533C109.4,21.593,109.354,21.816,109.354,22.059z M119.477,21.227h-2.155v5.916h-1.195V15.312
		h1.195v4.953h2.155V21.227z"/>
</g>
<g>
	<path fill="#FFFFFF" d="M119.349,23.814c0.815-0.381,1.536-0.814,2.162-1.301c0.626-0.484,1.155-1.009,1.592-1.573
		c0.436-0.563,0.786-1.154,1.05-1.774c0.264-0.62,0.442-1.254,0.535-1.904c-0.565,0.018-1.126,0.028-1.682,0.032
		c-0.557,0.005-1.113,0.007-1.669,0.007h-1.474v-0.962h2.225c0.648,0,1.297,0,1.946,0c0.648,0,1.302-0.009,1.96-0.026
		c-0.129,1.786-0.665,3.382-1.605,4.791c-0.941,1.408-2.352,2.585-4.234,3.529L119.349,23.814z M128.497,15.312h1.196v11.87h-1.196
		V15.312z"/>
</g>
</svg>
