<?xml version="1.0" encoding="utf-8"?>
<!-- Generator: Adobe Illustrator 16.0.0, SVG Export Plug-In . SVG Version: 6.00 Build 0)  -->
<!DOCTYPE svg PUBLIC "-//W3C//DTD SVG 1.1//EN" "http://www.w3.org/Graphics/SVG/1.1/DTD/svg11.dtd">
<svg version="1.1" id="레이어_1" xmlns="http://www.w3.org/2000/svg" xmlns:xlink="http://www.w3.org/1999/xlink" x="0px"
	 y="0px" width="130px" height="120px" viewBox="0 0 130 120" enable-background="new 0 0 130 120" xml:space="preserve">
<g>
	<path d="M35.496,49.431c-0.18,0.18-0.39,0.27-0.63,0.27c-0.348,0-0.588-0.174-0.72-0.522c-0.024-0.072-0.039-0.207-0.045-0.405
		c-0.006-0.198-0.009-0.339-0.009-0.423c0-1.632-0.003-3.252-0.009-4.86c-0.006-1.608-0.015-3.228-0.027-4.86v-0.306l-0.018-0.594
		c0-0.18,0.009-0.384,0.027-0.612s0.06-0.438,0.126-0.63c0.066-0.191,0.171-0.354,0.315-0.486c0.144-0.132,0.342-0.198,0.594-0.198
		c0.3,0,0.552,0.132,0.756,0.396c0.096,0.12,0.204,0.306,0.324,0.558c0.12,0.252,0.24,0.522,0.36,0.81
		c0.12,0.288,0.234,0.57,0.342,0.846c0.108,0.276,0.198,0.498,0.27,0.666c0.336,0.792,0.678,1.578,1.026,2.358
		c0.348,0.78,0.696,1.56,1.044,2.34c0.504-0.972,1.001-1.941,1.494-2.907s0.99-1.929,1.494-2.889
		c0.072-0.132,0.162-0.309,0.27-0.531s0.222-0.447,0.342-0.675c0.12-0.228,0.237-0.441,0.351-0.639
		c0.114-0.198,0.219-0.345,0.315-0.441c0.096-0.096,0.201-0.177,0.315-0.243c0.114-0.066,0.237-0.099,0.369-0.099
		c0.324,0,0.564,0.15,0.72,0.45c0.06,0.108,0.111,0.342,0.153,0.702c0.042,0.36,0.075,0.798,0.099,1.314
		c0.024,0.516,0.045,1.089,0.063,1.719s0.03,1.269,0.036,1.917c0.006,0.648,0.009,1.284,0.009,1.908
		c0,0.625-0.003,1.191-0.009,1.701c-0.006,0.51-0.009,0.939-0.009,1.287s0,0.57,0,0.666v0.342l0.018,0.702v0.36
		c0,0.06,0,0.138,0,0.234c0,0.096,0,0.195,0,0.297c0,0.102-0.006,0.201-0.018,0.297c-0.012,0.096-0.03,0.168-0.054,0.216
		c-0.072,0.18-0.183,0.327-0.333,0.441c-0.15,0.114-0.321,0.171-0.513,0.171c-0.204,0-0.381-0.066-0.531-0.198
		s-0.225-0.312-0.225-0.54c0-1.752,0.009-3.525,0.027-5.319s-0.003-3.567-0.063-5.319c-0.384,0.732-0.768,1.5-1.152,2.304
		c-0.384,0.804-0.768,1.572-1.152,2.304c-0.072,0.144-0.162,0.33-0.27,0.558c-0.108,0.228-0.222,0.459-0.342,0.693
		c-0.12,0.234-0.24,0.456-0.36,0.666c-0.12,0.21-0.228,0.369-0.324,0.477c-0.12,0.132-0.255,0.243-0.405,0.333
		c-0.15,0.09-0.315,0.135-0.495,0.135c-0.144,0-0.282-0.03-0.414-0.09c-0.132-0.06-0.246-0.15-0.342-0.27
		c-0.096-0.12-0.168-0.234-0.216-0.342c-0.084-0.18-0.162-0.372-0.234-0.576c-0.024-0.048-0.042-0.09-0.054-0.126
		c-0.012-0.036-0.03-0.078-0.054-0.126l-0.234-0.504c-0.084-0.204-0.171-0.405-0.261-0.603c-0.09-0.198-0.177-0.399-0.261-0.603
		l-0.828-1.998c-0.072-0.168-0.144-0.336-0.216-0.504c-0.072-0.168-0.132-0.33-0.18-0.486l-0.054-0.18v0.18
		c0.012,1.452,0.027,2.928,0.045,4.428s0.027,2.976,0.027,4.428C35.766,49.041,35.676,49.25,35.496,49.431z"/>
	<path d="M48.293,51.446c0.384-0.12,0.756-0.336,1.116-0.648c0.228-0.204,0.444-0.441,0.648-0.711s0.393-0.555,0.567-0.855
		s0.333-0.606,0.477-0.918s0.27-0.606,0.378-0.882c-0.06-0.06-0.111-0.129-0.153-0.207c-0.042-0.078-0.087-0.147-0.135-0.207
		c-0.6-0.768-1.161-1.56-1.683-2.376s-1.029-1.644-1.521-2.484c-0.084-0.144-0.168-0.282-0.252-0.414
		c-0.084-0.132-0.156-0.276-0.216-0.432c-0.024-0.06-0.036-0.156-0.036-0.288c0-0.24,0.09-0.45,0.27-0.63
		c0.18-0.18,0.39-0.27,0.63-0.27c0.228,0,0.42,0.09,0.576,0.27c0.096,0.096,0.174,0.207,0.234,0.333
		c0.06,0.126,0.12,0.249,0.18,0.369c0.12,0.204,0.243,0.414,0.369,0.63c0.126,0.216,0.255,0.432,0.387,0.648
		c0.276,0.456,0.558,0.909,0.846,1.359c0.288,0.45,0.588,0.891,0.9,1.323c0.06,0.084,0.12,0.165,0.18,0.243
		c0.06,0.078,0.12,0.159,0.18,0.243l1.242-3.24c0.024-0.06,0.048-0.12,0.072-0.18c0.024-0.06,0.048-0.12,0.072-0.18l0.288-0.72
		c0.024-0.06,0.048-0.12,0.072-0.18s0.048-0.12,0.072-0.18c0.048-0.12,0.093-0.246,0.135-0.378c0.042-0.132,0.099-0.252,0.171-0.36
		c0.096-0.12,0.207-0.216,0.333-0.288c0.126-0.072,0.267-0.108,0.423-0.108c0.204,0,0.381,0.066,0.531,0.198
		c0.15,0.132,0.225,0.313,0.225,0.54c0,0.072-0.012,0.156-0.036,0.252c-0.06,0.205-0.135,0.405-0.225,0.603
		c-0.09,0.198-0.177,0.399-0.261,0.603c-0.096,0.216-0.186,0.432-0.27,0.648c-0.084,0.216-0.168,0.438-0.252,0.666l-1.008,2.664
		c-0.084,0.228-0.168,0.45-0.252,0.666c-0.084,0.216-0.174,0.432-0.27,0.648c-0.313,0.756-0.646,1.494-0.999,2.214
		c-0.354,0.72-0.777,1.365-1.269,1.935c-0.492,0.57-1.065,1.029-1.719,1.377c-0.654,0.348-1.431,0.522-2.331,0.522
		c-0.132,0-0.276-0.006-0.432-0.018c-0.156-0.012-0.3-0.045-0.432-0.099s-0.243-0.132-0.333-0.234
		c-0.09-0.102-0.135-0.249-0.135-0.441c0-0.24,0.09-0.45,0.27-0.63c0.18-0.18,0.39-0.27,0.63-0.27h0.144l0.324,0.054
		C47.483,51.626,47.909,51.566,48.293,51.446z"/>
	<path d="M63.306,49.592c-0.18,0.18-0.39,0.27-0.63,0.27c-0.204,0-0.378-0.066-0.522-0.198c-0.144-0.132-0.222-0.306-0.234-0.522
		c-0.024-0.276-0.036-0.552-0.036-0.828s0-0.552,0-0.828V45.11l-0.054-4.788v-2.376c0-0.216,0.009-0.423,0.027-0.621
		c0.018-0.198,0.057-0.384,0.117-0.558c0.06-0.174,0.15-0.333,0.27-0.477c0.12-0.144,0.288-0.264,0.504-0.36
		c0.12-0.06,0.24-0.105,0.36-0.135c0.12-0.03,0.246-0.063,0.378-0.099c0.432-0.132,0.864-0.228,1.296-0.288
		c0.432-0.06,0.87-0.09,1.314-0.09c0.959,0,1.838,0.204,2.637,0.612c0.798,0.408,1.406,1.08,1.827,2.016
		c0.264,0.601,0.396,1.249,0.396,1.944c0,0.768-0.162,1.398-0.485,1.89c-0.324,0.492-0.741,0.888-1.251,1.188
		c-0.51,0.3-1.074,0.528-1.692,0.684c-0.618,0.156-1.222,0.276-1.809,0.36c-0.36,0.06-0.723,0.114-1.089,0.162
		c-0.366,0.048-0.729,0.084-1.089,0.108c0.012,0.792,0.021,1.572,0.027,2.34s0.009,1.548,0.009,2.34
		C63.576,49.203,63.485,49.413,63.306,49.592z M63.828,42.608c0.096,0,0.18-0.006,0.252-0.018c0.276-0.012,0.642-0.048,1.098-0.108
		c0.456-0.06,0.92-0.141,1.395-0.243c0.475-0.102,0.918-0.225,1.332-0.369s0.717-0.318,0.909-0.522
		c0.168-0.168,0.291-0.369,0.369-0.603c0.077-0.234,0.116-0.471,0.116-0.711c0-0.432-0.096-0.87-0.287-1.314
		c-0.145-0.336-0.324-0.618-0.54-0.846s-0.459-0.411-0.729-0.549c-0.27-0.138-0.558-0.237-0.863-0.297
		c-0.307-0.06-0.627-0.09-0.963-0.09c-0.42,0-0.825,0.039-1.215,0.117c-0.39,0.078-0.783,0.177-1.179,0.297
		c-0.012,0.144-0.018,0.282-0.018,0.414c0,0.132,0,0.27,0,0.414c0,0.744,0,1.485,0,2.223c0,0.738,0.006,1.479,0.018,2.223
		C63.629,42.615,63.731,42.608,63.828,42.608z"/>
	<path d="M74.996,41.834c-0.233,0.036-0.465,0.084-0.692,0.144c-0.12,0.036-0.233,0.072-0.342,0.108s-0.222,0.054-0.343,0.054
		c-0.203,0-0.381-0.069-0.53-0.207c-0.15-0.138-0.226-0.321-0.226-0.549c0-0.204,0.045-0.366,0.135-0.486
		c0.091-0.12,0.207-0.216,0.352-0.288c0.145-0.072,0.297-0.123,0.459-0.153c0.162-0.03,0.314-0.063,0.459-0.099
		c0.264-0.06,0.527-0.111,0.792-0.153s0.534-0.063,0.81-0.063c0.373,0,0.75,0.045,1.135,0.135c0.384,0.09,0.746,0.225,1.089,0.405
		c0.342,0.18,0.647,0.411,0.918,0.693c0.271,0.282,0.478,0.609,0.621,0.981c0.132,0.348,0.213,0.708,0.243,1.08
		c0.029,0.372,0.057,0.744,0.08,1.116c0.037,0.444,0.069,0.885,0.1,1.323c0.029,0.438,0.045,0.879,0.045,1.323
		c0,0.396-0.018,0.729-0.054,0.999c-0.036,0.27-0.111,0.501-0.226,0.693c-0.113,0.192-0.285,0.345-0.513,0.459
		c-0.228,0.114-0.54,0.213-0.937,0.297c-0.275,0.06-0.558,0.108-0.846,0.144c-0.287,0.036-0.57,0.054-0.846,0.054
		c-0.48,0-0.967-0.045-1.458-0.135c-0.492-0.09-0.938-0.252-1.341-0.486c-0.402-0.234-0.729-0.549-0.98-0.945
		c-0.253-0.396-0.379-0.894-0.379-1.494c0-0.552,0.123-1.05,0.369-1.494s0.566-0.822,0.963-1.134s0.84-0.549,1.332-0.711
		c0.492-0.162,0.984-0.243,1.477-0.243c0.168,0,0.387,0.021,0.656,0.063c0.271,0.042,0.555,0.111,0.855,0.207l-0.055-0.216
		c-0.071-0.264-0.195-0.489-0.369-0.675s-0.371-0.339-0.594-0.459c-0.222-0.12-0.459-0.207-0.711-0.261
		c-0.252-0.054-0.498-0.081-0.738-0.081S75.23,41.798,74.996,41.834z M78.435,47.667c0.006-0.12,0.009-0.228,0.009-0.324
		c0-0.324-0.009-0.645-0.027-0.963c-0.018-0.318-0.039-0.633-0.063-0.945c-0.12-0.084-0.252-0.168-0.396-0.252
		c-0.215-0.096-0.455-0.174-0.719-0.234c-0.265-0.06-0.517-0.09-0.756-0.09c-0.193,0-0.391,0.021-0.595,0.063
		c-0.204,0.042-0.402,0.108-0.595,0.198c-0.191,0.09-0.368,0.198-0.53,0.324s-0.297,0.279-0.405,0.459
		c-0.119,0.204-0.18,0.438-0.18,0.702c0,0.348,0.09,0.627,0.27,0.837c0.181,0.21,0.402,0.372,0.666,0.486
		c0.264,0.114,0.553,0.189,0.864,0.225c0.312,0.036,0.595,0.054,0.847,0.054c0.275,0,0.543-0.015,0.801-0.045
		s0.519-0.087,0.783-0.171C78.42,47.895,78.429,47.787,78.435,47.667z"/>
	<path d="M84.401,53.283c-0.396-0.12-0.765-0.294-1.106-0.522s-0.646-0.504-0.91-0.828c-0.264-0.324-0.467-0.684-0.611-1.08
		c-0.061-0.156-0.107-0.321-0.145-0.495c-0.035-0.174-0.054-0.345-0.054-0.513c0-0.24,0.091-0.45,0.271-0.63
		c0.18-0.18,0.39-0.27,0.63-0.27c0.216,0,0.372,0.042,0.468,0.126s0.168,0.195,0.216,0.333c0.048,0.138,0.081,0.285,0.099,0.441
		c0.019,0.156,0.058,0.306,0.117,0.45c0.096,0.228,0.229,0.435,0.396,0.621s0.359,0.345,0.576,0.477
		c0.216,0.132,0.443,0.234,0.684,0.306c0.24,0.072,0.48,0.108,0.721,0.108c0.239,0,0.465-0.03,0.674-0.09
		c0.211-0.06,0.406-0.18,0.586-0.36c0.216-0.216,0.387-0.522,0.513-0.918s0.216-0.819,0.271-1.269
		c0.054-0.45,0.086-0.891,0.099-1.323c0.012-0.432,0.019-0.798,0.019-1.098c-0.385,0.324-0.799,0.588-1.242,0.792
		c-0.445,0.204-0.906,0.306-1.387,0.306c-1.128,0-1.953-0.27-2.475-0.81s-0.783-1.398-0.783-2.574c0-0.36,0.033-0.717,0.1-1.071
		c0.065-0.354,0.17-0.693,0.314-1.017c0.18-0.372,0.404-0.72,0.675-1.044c0.271-0.324,0.576-0.6,0.918-0.828
		c0.343-0.228,0.708-0.408,1.099-0.54c0.389-0.132,0.789-0.198,1.197-0.198c0.275,0,0.555,0.024,0.836,0.072
		c0.282,0.048,0.555,0.126,0.819,0.234c0.276,0.12,0.501,0.255,0.675,0.405s0.315,0.318,0.424,0.504
		c0.107,0.186,0.191,0.396,0.252,0.63c0.059,0.234,0.107,0.495,0.144,0.783c0.048,0.312,0.077,0.624,0.09,0.936
		c0.012,0.312,0.019,0.624,0.019,0.936c0,0.456,0,0.906,0,1.35c0,0.444-0.007,0.895-0.019,1.35c-0.013,0.516-0.033,1.056-0.063,1.62
		c-0.029,0.564-0.107,1.116-0.233,1.656c-0.126,0.54-0.321,1.041-0.585,1.503c-0.264,0.461-0.631,0.849-1.098,1.161
		c-0.301,0.204-0.621,0.348-0.963,0.432c-0.343,0.084-0.688,0.126-1.035,0.126C85.193,53.462,84.797,53.402,84.401,53.283z
		 M87.902,43.688c-0.018-0.228-0.039-0.456-0.063-0.684c-0.024-0.228-0.052-0.441-0.082-0.639c-0.029-0.198-0.068-0.339-0.116-0.423
		c-0.061-0.108-0.15-0.198-0.271-0.27c-0.119-0.072-0.249-0.126-0.387-0.162c-0.139-0.036-0.279-0.063-0.423-0.081
		c-0.144-0.018-0.271-0.027-0.378-0.027c-0.504,0-0.973,0.165-1.404,0.495s-0.738,0.735-0.918,1.215
		c-0.072,0.192-0.12,0.39-0.145,0.594c-0.023,0.204-0.035,0.402-0.035,0.594c0,0.36,0.027,0.66,0.08,0.9
		c0.055,0.24,0.147,0.432,0.279,0.576c0.133,0.144,0.313,0.25,0.541,0.315c0.227,0.066,0.516,0.099,0.863,0.099
		c0.217,0,0.438-0.048,0.666-0.144c0.229-0.096,0.447-0.219,0.657-0.369s0.401-0.321,0.575-0.513s0.315-0.384,0.424-0.576
		c0.035-0.06,0.065-0.114,0.09-0.162c0.023-0.047,0.048-0.102,0.072-0.162C87.93,44.109,87.92,43.917,87.902,43.688z"/>
	<path d="M92.78,46.028c0.019,0.156,0.057,0.313,0.117,0.468c0.096,0.276,0.237,0.522,0.423,0.738
		c0.186,0.216,0.398,0.396,0.639,0.54s0.495,0.252,0.766,0.324c0.27,0.072,0.543,0.108,0.818,0.108c0.372,0,0.721-0.045,1.045-0.135
		c0.323-0.09,0.623-0.249,0.899-0.477c0.096-0.072,0.181-0.153,0.252-0.243s0.149-0.171,0.233-0.243
		c0.084-0.072,0.174-0.129,0.271-0.171s0.21-0.057,0.343-0.045c0.203,0.012,0.377,0.09,0.521,0.234s0.209,0.33,0.197,0.558
		c-0.012,0.192-0.074,0.357-0.188,0.495c-0.114,0.138-0.231,0.267-0.351,0.387c-0.469,0.456-0.981,0.78-1.539,0.972
		c-0.559,0.192-1.168,0.288-1.827,0.288c-0.433,0-0.858-0.057-1.278-0.171c-0.42-0.114-0.811-0.285-1.17-0.513
		c-0.359-0.228-0.684-0.504-0.973-0.828c-0.287-0.324-0.51-0.702-0.665-1.134c-0.108-0.288-0.177-0.597-0.207-0.927
		c-0.03-0.33-0.046-0.645-0.046-0.945c0-1.08,0.205-2.043,0.613-2.889c0.407-0.846,1.109-1.485,2.105-1.917
		c0.313-0.132,0.633-0.234,0.963-0.306c0.33-0.072,0.669-0.108,1.018-0.108c0.516,0,0.992,0.108,1.431,0.324
		c0.438,0.216,0.815,0.51,1.134,0.882c0.318,0.372,0.566,0.807,0.747,1.305s0.271,1.029,0.271,1.593c0,0.18-0.043,0.372-0.127,0.576
		s-0.203,0.36-0.359,0.468c-0.156,0.108-0.327,0.189-0.514,0.243c-0.186,0.054-0.377,0.084-0.576,0.09
		c-0.197,0.006-0.387,0.009-0.566,0.009h-0.882l-1.782-0.036h-1.8C92.747,45.71,92.762,45.873,92.78,46.028z M94.176,42.05
		c-0.433,0.205-0.774,0.528-1.026,0.972c-0.072,0.132-0.132,0.27-0.181,0.414c-0.047,0.144-0.09,0.288-0.125,0.432H93.6l2.394,0.054
		h1.603c0-0.324-0.058-0.618-0.172-0.882c-0.113-0.264-0.267-0.492-0.459-0.684c-0.191-0.192-0.408-0.342-0.647-0.45
		c-0.24-0.108-0.486-0.162-0.738-0.162C95.075,41.745,94.607,41.847,94.176,42.05z"/>
</g>
<line fill="#231815" stroke="#CECCE5" stroke-width="3" stroke-miterlimit="10" x1="30.063" y1="70.625" x2="104.938" y2="70.625"/>
</svg>
